<svg width="428" height="296" viewBox="0 0 428 296" fill="none" xmlns="http://www.w3.org/2000/svg">
<rect width="428" height="296" fill="white"/>
<path d="M17.0114 27V15.3636H21.6023C22.4811 15.3636 23.2311 15.5208 23.8523 15.8352C24.4773 16.1458 24.9527 16.5871 25.2784 17.1591C25.608 17.7273 25.7727 18.3958 25.7727 19.1648C25.7727 19.9375 25.6061 20.6023 25.2727 21.1591C24.9394 21.7121 24.4564 22.1364 23.8239 22.4318C23.1951 22.7273 22.4337 22.875 21.5398 22.875H18.4659V20.8977H21.142C21.6117 20.8977 22.0019 20.8333 22.3125 20.7045C22.6231 20.5758 22.8542 20.3826 23.0057 20.125C23.161 19.8674 23.2386 19.5473 23.2386 19.1648C23.2386 18.7784 23.161 18.4527 23.0057 18.1875C22.8542 17.9223 22.6212 17.7216 22.3068 17.5852C21.9962 17.4451 21.6042 17.375 21.1307 17.375H19.4716V27H17.0114ZM23.2955 21.7045L26.1875 27H23.4716L20.642 21.7045H23.2955ZM31.3026 27.1705C30.4048 27.1705 29.6321 26.9886 28.9844 26.625C28.3404 26.2576 27.8442 25.7386 27.4957 25.0682C27.1473 24.3939 26.973 23.5966 26.973 22.6761C26.973 21.7784 27.1473 20.9905 27.4957 20.3125C27.8442 19.6345 28.3348 19.1061 28.9673 18.7273C29.6037 18.3485 30.3499 18.1591 31.206 18.1591C31.7817 18.1591 32.3177 18.2519 32.8139 18.4375C33.3139 18.6193 33.7495 18.8939 34.1207 19.2614C34.4957 19.6288 34.7874 20.0909 34.9957 20.6477C35.2041 21.2008 35.3082 21.8485 35.3082 22.5909V23.2557H27.9389V21.7557H33.0298C33.0298 21.4072 32.9541 21.0985 32.8026 20.8295C32.651 20.5606 32.4408 20.3504 32.1719 20.1989C31.9067 20.0436 31.598 19.9659 31.2457 19.9659C30.8783 19.9659 30.5526 20.0511 30.2685 20.2216C29.9882 20.3883 29.7685 20.6136 29.6094 20.8977C29.4503 21.178 29.3688 21.4905 29.3651 21.8352V23.2614C29.3651 23.6932 29.4446 24.0663 29.6037 24.3807C29.7666 24.6951 29.9957 24.9375 30.2912 25.108C30.5866 25.2784 30.937 25.3636 31.3423 25.3636C31.6113 25.3636 31.8575 25.3258 32.081 25.25C32.3045 25.1742 32.4957 25.0606 32.6548 24.9091C32.8139 24.7576 32.9351 24.572 33.0185 24.3523L35.2571 24.5C35.1435 25.0379 34.9105 25.5076 34.5582 25.9091C34.2098 26.3068 33.759 26.6174 33.206 26.8409C32.6567 27.0606 32.0223 27.1705 31.3026 27.1705ZM40.1037 27.142C39.4408 27.142 38.8404 26.9716 38.3026 26.6307C37.7685 26.286 37.3442 25.7803 37.0298 25.1136C36.7192 24.4432 36.5639 23.6212 36.5639 22.6477C36.5639 21.6477 36.7249 20.8163 37.0469 20.1534C37.3688 19.4867 37.7969 18.9886 38.331 18.6591C38.8688 18.3258 39.4579 18.1591 40.098 18.1591C40.5866 18.1591 40.9938 18.2424 41.3196 18.4091C41.6491 18.572 41.9143 18.7765 42.1151 19.0227C42.3196 19.2652 42.4749 19.5038 42.581 19.7386H42.6548V15.3636H45.0696V27H42.6832V25.6023H42.581C42.4673 25.8447 42.3063 26.0852 42.098 26.3239C41.8935 26.5587 41.6264 26.7538 41.2969 26.9091C40.9711 27.0644 40.5734 27.142 40.1037 27.142ZM40.8707 25.2159C41.2609 25.2159 41.5904 25.1098 41.8594 24.8977C42.1321 24.6818 42.3404 24.3807 42.4844 23.9943C42.6321 23.608 42.706 23.1553 42.706 22.6364C42.706 22.1174 42.634 21.6667 42.4901 21.2841C42.3461 20.9015 42.1378 20.6061 41.8651 20.3977C41.5923 20.1894 41.2609 20.0852 40.8707 20.0852C40.473 20.0852 40.1378 20.1932 39.8651 20.4091C39.5923 20.625 39.3859 20.9242 39.2457 21.3068C39.1056 21.6894 39.0355 22.1326 39.0355 22.6364C39.0355 23.1439 39.1056 23.5928 39.2457 23.983C39.3897 24.3693 39.5961 24.6723 39.8651 24.892C40.1378 25.108 40.473 25.2159 40.8707 25.2159ZM51.0369 27.1705C50.1392 27.1705 49.3665 26.9886 48.7188 26.625C48.0748 26.2576 47.5786 25.7386 47.2301 25.0682C46.8816 24.3939 46.7074 23.5966 46.7074 22.6761C46.7074 21.7784 46.8816 20.9905 47.2301 20.3125C47.5786 19.6345 48.0691 19.1061 48.7017 18.7273C49.3381 18.3485 50.0843 18.1591 50.9403 18.1591C51.5161 18.1591 52.0521 18.2519 52.5483 18.4375C53.0483 18.6193 53.4839 18.8939 53.8551 19.2614C54.2301 19.6288 54.5218 20.0909 54.7301 20.6477C54.9384 21.2008 55.0426 21.8485 55.0426 22.5909V23.2557H47.6733V21.7557H52.7642C52.7642 21.4072 52.6884 21.0985 52.5369 20.8295C52.3854 20.5606 52.1752 20.3504 51.9062 20.1989C51.6411 20.0436 51.3324 19.9659 50.9801 19.9659C50.6127 19.9659 50.2869 20.0511 50.0028 20.2216C49.7225 20.3883 49.5028 20.6136 49.3438 20.8977C49.1847 21.178 49.1032 21.4905 49.0994 21.8352V23.2614C49.0994 23.6932 49.179 24.0663 49.3381 24.3807C49.5009 24.6951 49.7301 24.9375 50.0256 25.108C50.321 25.2784 50.6714 25.3636 51.0767 25.3636C51.3456 25.3636 51.5919 25.3258 51.8153 25.25C52.0388 25.1742 52.2301 25.0606 52.3892 24.9091C52.5483 24.7576 52.6695 24.572 52.7528 24.3523L54.9915 24.5C54.8778 25.0379 54.6449 25.5076 54.2926 25.9091C53.9441 26.3068 53.4934 26.6174 52.9403 26.8409C52.3911 27.0606 51.7566 27.1705 51.0369 27.1705ZM56.6222 27V18.2727H58.929V19.8125H59.0312C59.2131 19.3011 59.5161 18.8977 59.9403 18.6023C60.3646 18.3068 60.8722 18.1591 61.4631 18.1591C62.0616 18.1591 62.571 18.3087 62.9915 18.608C63.4119 18.9034 63.6922 19.3049 63.8324 19.8125H63.9233C64.1013 19.3125 64.4233 18.9129 64.8892 18.6136C65.3589 18.3106 65.9138 18.1591 66.554 18.1591C67.3684 18.1591 68.0294 18.4186 68.5369 18.9375C69.0483 19.4527 69.304 20.1837 69.304 21.1307V27H66.8892V21.608C66.8892 21.1231 66.7604 20.7595 66.5028 20.517C66.2453 20.2746 65.9233 20.1534 65.5369 20.1534C65.0975 20.1534 64.7547 20.2936 64.5085 20.5739C64.2623 20.8504 64.1392 21.2159 64.1392 21.6705V27H61.7926V21.5568C61.7926 21.1288 61.6695 20.7879 61.4233 20.5341C61.1809 20.2803 60.8608 20.1534 60.4631 20.1534C60.1941 20.1534 59.9517 20.2216 59.7358 20.358C59.5237 20.4905 59.3551 20.678 59.2301 20.9205C59.1051 21.1591 59.0426 21.4394 59.0426 21.7614V27H56.6222ZM71.2159 30.2727V18.2727H73.6023V19.7386H73.7102C73.8163 19.5038 73.9697 19.2652 74.1705 19.0227C74.375 18.7765 74.6402 18.572 74.9659 18.4091C75.2955 18.2424 75.7045 18.1591 76.1932 18.1591C76.8295 18.1591 77.4167 18.3258 77.9545 18.6591C78.4924 18.9886 78.9223 19.4867 79.2443 20.1534C79.5663 20.8163 79.7273 21.6477 79.7273 22.6477C79.7273 23.6212 79.5701 24.4432 79.2557 25.1136C78.9451 25.7803 78.5208 26.286 77.983 26.6307C77.4489 26.9716 76.8504 27.142 76.1875 27.142C75.7178 27.142 75.3182 27.0644 74.9886 26.9091C74.6629 26.7538 74.3958 26.5587 74.1875 26.3239C73.9792 26.0852 73.8201 25.8447 73.7102 25.6023H73.6364V30.2727H71.2159ZM73.5852 22.6364C73.5852 23.1553 73.6572 23.608 73.8011 23.9943C73.9451 24.3807 74.1534 24.6818 74.4261 24.8977C74.6989 25.1098 75.0303 25.2159 75.4205 25.2159C75.8144 25.2159 76.1477 25.108 76.4205 24.892C76.6932 24.6723 76.8996 24.3693 77.0398 23.983C77.1837 23.5928 77.2557 23.1439 77.2557 22.6364C77.2557 22.1326 77.1856 21.6894 77.0455 21.3068C76.9053 20.9242 76.6989 20.625 76.4261 20.4091C76.1534 20.1932 75.8182 20.0852 75.4205 20.0852C75.0265 20.0852 74.6932 20.1894 74.4205 20.3977C74.1515 20.6061 73.9451 20.9015 73.8011 21.2841C73.6572 21.6667 73.5852 22.1174 73.5852 22.6364ZM85.983 18.2727V20.0909H80.7273V18.2727H85.983ZM81.9205 16.1818H84.3409V24.3182C84.3409 24.5417 84.375 24.7159 84.4432 24.8409C84.5114 24.9621 84.6061 25.0473 84.7273 25.0966C84.8523 25.1458 84.9962 25.1705 85.1591 25.1705C85.2727 25.1705 85.3864 25.161 85.5 25.142C85.6136 25.1193 85.7008 25.1023 85.7614 25.0909L86.142 26.892C86.0208 26.9299 85.8504 26.9735 85.6307 27.0227C85.411 27.0758 85.1439 27.108 84.8295 27.1193C84.2462 27.142 83.7348 27.0644 83.2955 26.8864C82.8598 26.7083 82.5208 26.4318 82.2784 26.0568C82.036 25.6818 81.9167 25.2083 81.9205 24.6364V16.1818ZM87.5597 27V18.2727H89.9801V27H87.5597ZM88.7756 17.1477C88.4157 17.1477 88.107 17.0284 87.8494 16.7898C87.5956 16.5473 87.4688 16.2576 87.4688 15.9205C87.4688 15.5871 87.5956 15.3011 87.8494 15.0625C88.107 14.8201 88.4157 14.6989 88.7756 14.6989C89.1354 14.6989 89.4422 14.8201 89.696 15.0625C89.9536 15.3011 90.0824 15.5871 90.0824 15.9205C90.0824 16.2576 89.9536 16.5473 89.696 16.7898C89.4422 17.0284 89.1354 17.1477 88.7756 17.1477ZM95.8622 27.1705C94.9796 27.1705 94.2164 26.983 93.5724 26.608C92.9323 26.2292 92.438 25.7027 92.0895 25.0284C91.741 24.3504 91.5668 23.5644 91.5668 22.6705C91.5668 21.7689 91.741 20.9811 92.0895 20.3068C92.438 19.6288 92.9323 19.1023 93.5724 18.7273C94.2164 18.3485 94.9796 18.1591 95.8622 18.1591C96.7448 18.1591 97.5062 18.3485 98.1463 18.7273C98.7902 19.1023 99.2865 19.6288 99.6349 20.3068C99.9834 20.9811 100.158 21.7689 100.158 22.6705C100.158 23.5644 99.9834 24.3504 99.6349 25.0284C99.2865 25.7027 98.7902 26.2292 98.1463 26.608C97.5062 26.983 96.7448 27.1705 95.8622 27.1705ZM95.8736 25.2955C96.2751 25.2955 96.6103 25.1818 96.8793 24.9545C97.1482 24.7235 97.3509 24.4091 97.4872 24.0114C97.6274 23.6136 97.6974 23.161 97.6974 22.6534C97.6974 22.1458 97.6274 21.6932 97.4872 21.2955C97.3509 20.8977 97.1482 20.5833 96.8793 20.3523C96.6103 20.1212 96.2751 20.0057 95.8736 20.0057C95.4683 20.0057 95.1274 20.1212 94.8509 20.3523C94.5781 20.5833 94.3717 20.8977 94.2315 21.2955C94.0952 21.6932 94.027 22.1458 94.027 22.6534C94.027 23.161 94.0952 23.6136 94.2315 24.0114C94.3717 24.4091 94.5781 24.7235 94.8509 24.9545C95.1274 25.1818 95.4683 25.2955 95.8736 25.2955ZM104.152 21.9545V27H101.732V18.2727H104.038V19.8125H104.141C104.334 19.3049 104.658 18.9034 105.112 18.608C105.567 18.3087 106.118 18.1591 106.766 18.1591C107.372 18.1591 107.9 18.2917 108.351 18.5568C108.802 18.822 109.152 19.2008 109.402 19.6932C109.652 20.1818 109.777 20.7652 109.777 21.4432V27H107.357V21.875C107.36 21.3409 107.224 20.9242 106.947 20.625C106.671 20.322 106.29 20.1705 105.805 20.1705C105.48 20.1705 105.192 20.2405 104.942 20.3807C104.696 20.5208 104.502 20.7254 104.362 20.9943C104.226 21.2595 104.156 21.5795 104.152 21.9545ZM115.388 30.2727V18.2727H117.774V19.7386H117.882C117.988 19.5038 118.142 19.2652 118.342 19.0227C118.547 18.7765 118.812 18.572 119.138 18.4091C119.467 18.2424 119.876 18.1591 120.365 18.1591C121.001 18.1591 121.589 18.3258 122.126 18.6591C122.664 18.9886 123.094 19.4867 123.416 20.1534C123.738 20.8163 123.899 21.6477 123.899 22.6477C123.899 23.6212 123.742 24.4432 123.428 25.1136C123.117 25.7803 122.693 26.286 122.155 26.6307C121.621 26.9716 121.022 27.142 120.359 27.142C119.89 27.142 119.49 27.0644 119.161 26.9091C118.835 26.7538 118.568 26.5587 118.359 26.3239C118.151 26.0852 117.992 25.8447 117.882 25.6023H117.808V30.2727H115.388ZM117.757 22.6364C117.757 23.1553 117.829 23.608 117.973 23.9943C118.117 24.3807 118.325 24.6818 118.598 24.8977C118.871 25.1098 119.202 25.2159 119.592 25.2159C119.986 25.2159 120.32 25.108 120.592 24.892C120.865 24.6723 121.071 24.3693 121.212 23.983C121.356 23.5928 121.428 23.1439 121.428 22.6364C121.428 22.1326 121.357 21.6894 121.217 21.3068C121.077 20.9242 120.871 20.625 120.598 20.4091C120.325 20.1932 119.99 20.0852 119.592 20.0852C119.198 20.0852 118.865 20.1894 118.592 20.3977C118.323 20.6061 118.117 20.9015 117.973 21.2841C117.829 21.6667 117.757 22.1174 117.757 22.6364ZM125.513 27V18.2727H127.859V19.7955H127.95C128.109 19.2538 128.376 18.8447 128.751 18.5682C129.126 18.2879 129.558 18.1477 130.047 18.1477C130.168 18.1477 130.299 18.1553 130.439 18.1705C130.579 18.1856 130.702 18.2064 130.808 18.233V20.3807C130.695 20.3466 130.537 20.3163 130.337 20.2898C130.136 20.2633 129.952 20.25 129.786 20.25C129.429 20.25 129.111 20.3277 128.831 20.483C128.554 20.6345 128.335 20.8466 128.172 21.1193C128.013 21.392 127.933 21.7064 127.933 22.0625V27H125.513ZM135.597 27.1705C134.714 27.1705 133.951 26.983 133.307 26.608C132.667 26.2292 132.172 25.7027 131.824 25.0284C131.475 24.3504 131.301 23.5644 131.301 22.6705C131.301 21.7689 131.475 20.9811 131.824 20.3068C132.172 19.6288 132.667 19.1023 133.307 18.7273C133.951 18.3485 134.714 18.1591 135.597 18.1591C136.479 18.1591 137.241 18.3485 137.881 18.7273C138.525 19.1023 139.021 19.6288 139.369 20.3068C139.718 20.9811 139.892 21.7689 139.892 22.6705C139.892 23.5644 139.718 24.3504 139.369 25.0284C139.021 25.7027 138.525 26.2292 137.881 26.608C137.241 26.983 136.479 27.1705 135.597 27.1705ZM135.608 25.2955C136.009 25.2955 136.345 25.1818 136.614 24.9545C136.883 24.7235 137.085 24.4091 137.222 24.0114C137.362 23.6136 137.432 23.161 137.432 22.6534C137.432 22.1458 137.362 21.6932 137.222 21.2955C137.085 20.8977 136.883 20.5833 136.614 20.3523C136.345 20.1212 136.009 20.0057 135.608 20.0057C135.203 20.0057 134.862 20.1212 134.585 20.3523C134.313 20.5833 134.106 20.8977 133.966 21.2955C133.83 21.6932 133.761 22.1458 133.761 22.6534C133.761 23.161 133.83 23.6136 133.966 24.0114C134.106 24.4091 134.313 24.7235 134.585 24.9545C134.862 25.1818 135.203 25.2955 135.608 25.2955ZM145.409 27.1705C144.515 27.1705 143.746 26.9811 143.102 26.6023C142.462 26.2197 141.97 25.6894 141.625 25.0114C141.284 24.3333 141.114 23.553 141.114 22.6705C141.114 21.7765 141.286 20.9924 141.631 20.3182C141.979 19.6402 142.473 19.1117 143.114 18.733C143.754 18.3504 144.515 18.1591 145.398 18.1591C146.159 18.1591 146.826 18.2973 147.398 18.5739C147.97 18.8504 148.422 19.2386 148.756 19.7386C149.089 20.2386 149.273 20.8258 149.307 21.5H147.023C146.958 21.0644 146.788 20.714 146.511 20.4489C146.239 20.1799 145.881 20.0455 145.438 20.0455C145.062 20.0455 144.735 20.1477 144.455 20.3523C144.178 20.553 143.962 20.8466 143.807 21.233C143.652 21.6193 143.574 22.0871 143.574 22.6364C143.574 23.1932 143.65 23.6667 143.801 24.0568C143.956 24.447 144.174 24.7443 144.455 24.9489C144.735 25.1534 145.062 25.2557 145.438 25.2557C145.714 25.2557 145.962 25.1989 146.182 25.0852C146.405 24.9716 146.589 24.8068 146.733 24.5909C146.881 24.3712 146.977 24.108 147.023 23.8011H149.307C149.269 24.4678 149.087 25.0549 148.761 25.5625C148.439 26.0663 147.994 26.4602 147.426 26.7443C146.858 27.0284 146.186 27.1705 145.409 27.1705ZM154.834 27.1705C153.936 27.1705 153.163 26.9886 152.516 26.625C151.872 26.2576 151.375 25.7386 151.027 25.0682C150.679 24.3939 150.504 23.5966 150.504 22.6761C150.504 21.7784 150.679 20.9905 151.027 20.3125C151.375 19.6345 151.866 19.1061 152.499 18.7273C153.135 18.3485 153.881 18.1591 154.737 18.1591C155.313 18.1591 155.849 18.2519 156.345 18.4375C156.845 18.6193 157.281 18.8939 157.652 19.2614C158.027 19.6288 158.319 20.0909 158.527 20.6477C158.735 21.2008 158.839 21.8485 158.839 22.5909V23.2557H151.47V21.7557H156.561C156.561 21.4072 156.485 21.0985 156.334 20.8295C156.182 20.5606 155.972 20.3504 155.703 20.1989C155.438 20.0436 155.129 19.9659 154.777 19.9659C154.41 19.9659 154.084 20.0511 153.8 20.2216C153.519 20.3883 153.3 20.6136 153.141 20.8977C152.982 21.178 152.9 21.4905 152.896 21.8352V23.2614C152.896 23.6932 152.976 24.0663 153.135 24.3807C153.298 24.6951 153.527 24.9375 153.822 25.108C154.118 25.2784 154.468 25.3636 154.874 25.3636C155.143 25.3636 155.389 25.3258 155.612 25.25C155.836 25.1742 156.027 25.0606 156.186 24.9091C156.345 24.7576 156.466 24.572 156.55 24.3523L158.788 24.5C158.675 25.0379 158.442 25.5076 158.089 25.9091C157.741 26.3068 157.29 26.6174 156.737 26.8409C156.188 27.0606 155.554 27.1705 154.834 27.1705ZM167.68 20.7614L165.464 20.8977C165.427 20.7083 165.345 20.5379 165.22 20.3864C165.095 20.2311 164.93 20.108 164.726 20.017C164.525 19.9223 164.285 19.875 164.004 19.875C163.629 19.875 163.313 19.9545 163.055 20.1136C162.798 20.2689 162.669 20.4773 162.669 20.7386C162.669 20.947 162.752 21.1231 162.919 21.267C163.086 21.411 163.372 21.5265 163.777 21.6136L165.357 21.9318C166.205 22.1061 166.838 22.3864 167.254 22.7727C167.671 23.1591 167.879 23.6667 167.879 24.2955C167.879 24.8674 167.711 25.3693 167.374 25.8011C167.04 26.233 166.582 26.5701 165.999 26.8125C165.419 27.0511 164.75 27.1705 163.993 27.1705C162.838 27.1705 161.917 26.9299 161.232 26.4489C160.55 25.964 160.15 25.3049 160.033 24.4716L162.413 24.3466C162.485 24.6989 162.66 24.9678 162.936 25.1534C163.213 25.3352 163.567 25.4261 163.999 25.4261C164.423 25.4261 164.764 25.3447 165.021 25.1818C165.283 25.0152 165.415 24.8011 165.419 24.5398C165.415 24.3201 165.322 24.1402 165.141 24C164.959 23.8561 164.679 23.7462 164.3 23.6705L162.788 23.3693C161.936 23.1989 161.302 22.9034 160.885 22.483C160.472 22.0625 160.266 21.5265 160.266 20.875C160.266 20.3144 160.417 19.8314 160.72 19.4261C161.027 19.0208 161.457 18.7083 162.01 18.4886C162.567 18.2689 163.218 18.1591 163.964 18.1591C165.067 18.1591 165.934 18.392 166.567 18.858C167.203 19.3239 167.574 19.9583 167.68 20.7614ZM176.665 20.7614L174.449 20.8977C174.411 20.7083 174.33 20.5379 174.205 20.3864C174.08 20.2311 173.915 20.108 173.71 20.017C173.509 19.9223 173.269 19.875 172.989 19.875C172.614 19.875 172.297 19.9545 172.04 20.1136C171.782 20.2689 171.653 20.4773 171.653 20.7386C171.653 20.947 171.737 21.1231 171.903 21.267C172.07 21.411 172.356 21.5265 172.761 21.6136L174.341 21.9318C175.189 22.1061 175.822 22.3864 176.239 22.7727C176.655 23.1591 176.864 23.6667 176.864 24.2955C176.864 24.8674 176.695 25.3693 176.358 25.8011C176.025 26.233 175.566 26.5701 174.983 26.8125C174.403 27.0511 173.735 27.1705 172.977 27.1705C171.822 27.1705 170.902 26.9299 170.216 26.4489C169.534 25.964 169.134 25.3049 169.017 24.4716L171.398 24.3466C171.47 24.6989 171.644 24.9678 171.92 25.1534C172.197 25.3352 172.551 25.4261 172.983 25.4261C173.407 25.4261 173.748 25.3447 174.006 25.1818C174.267 25.0152 174.4 24.8011 174.403 24.5398C174.4 24.3201 174.307 24.1402 174.125 24C173.943 23.8561 173.663 23.7462 173.284 23.6705L171.773 23.3693C170.92 23.1989 170.286 22.9034 169.869 22.483C169.456 22.0625 169.25 21.5265 169.25 20.875C169.25 20.3144 169.402 19.8314 169.705 19.4261C170.011 19.0208 170.441 18.7083 170.994 18.4886C171.551 18.2689 172.203 18.1591 172.949 18.1591C174.051 18.1591 174.919 18.392 175.551 18.858C176.188 19.3239 176.559 19.9583 176.665 20.7614Z" fill="black"/>
<path d="M354 200.5V234H61V200.5" stroke="black" stroke-width="1.5"/>
<path d="M60 116.5L60 83L353 83L353 117.5" stroke="black" stroke-width="1.5"/>
<rect x="152.5" y="53" width="22" height="22" rx="11" fill="#FFC012"/>
<path d="M164.942 59.2727V68H163.362V60.8111H163.31L161.269 62.1151V60.6662L163.438 59.2727H164.942Z" fill="black"/>
<path d="M183.729 68V60H186.432C187.057 60 187.57 60.1068 187.971 60.3203C188.372 60.5312 188.669 60.8216 188.861 61.1914C189.054 61.5612 189.15 61.9818 189.15 62.4531C189.15 62.9245 189.054 63.3424 188.861 63.707C188.669 64.0716 188.373 64.3581 187.975 64.5664C187.576 64.7721 187.067 64.875 186.447 64.875H184.26V64H186.416C186.843 64 187.187 63.9375 187.447 63.8125C187.71 63.6875 187.9 63.5104 188.018 63.2812C188.137 63.0495 188.197 62.7734 188.197 62.4531C188.197 62.1328 188.137 61.8529 188.018 61.6133C187.898 61.3737 187.706 61.1888 187.443 61.0586C187.18 60.9258 186.833 60.8594 186.4 60.8594H184.697V68H183.729ZM187.494 64.4062L189.463 68H188.338L186.4 64.4062H187.494ZM193.091 68.125C192.513 68.125 192.014 67.9974 191.595 67.7422C191.178 67.4844 190.856 67.125 190.63 66.6641C190.406 66.2005 190.294 65.6615 190.294 65.0469C190.294 64.4323 190.406 63.8906 190.63 63.4219C190.856 62.9505 191.172 62.5833 191.575 62.3203C191.981 62.0547 192.455 61.9219 192.997 61.9219C193.31 61.9219 193.618 61.974 193.923 62.0781C194.228 62.1823 194.505 62.3516 194.755 62.5859C195.005 62.8177 195.204 63.125 195.353 63.5078C195.501 63.8906 195.575 64.362 195.575 64.9219V65.3125H190.95V64.5156H194.638C194.638 64.1771 194.57 63.875 194.435 63.6094C194.302 63.3437 194.112 63.1341 193.864 62.9805C193.619 62.8268 193.33 62.75 192.997 62.75C192.63 62.75 192.312 62.8411 192.044 63.0234C191.778 63.2031 191.574 63.4375 191.431 63.7266C191.287 64.0156 191.216 64.3255 191.216 64.6562V65.1875C191.216 65.6406 191.294 66.0247 191.45 66.3398C191.609 66.6523 191.829 66.8906 192.11 67.0547C192.392 67.2161 192.718 67.2969 193.091 67.2969C193.333 67.2969 193.552 67.263 193.747 67.1953C193.945 67.125 194.116 67.0208 194.259 66.8828C194.402 66.7422 194.513 66.5677 194.591 66.3594L195.481 66.6094C195.388 66.9115 195.23 67.1771 195.009 67.4062C194.787 67.6328 194.514 67.8099 194.188 67.9375C193.863 68.0625 193.497 68.125 193.091 68.125ZM199.243 68.125C198.743 68.125 198.302 67.9987 197.919 67.7461C197.536 67.4909 197.237 67.1315 197.021 66.668C196.804 66.2018 196.696 65.651 196.696 65.0156C196.696 64.3854 196.804 63.8385 197.021 63.375C197.237 62.9115 197.537 62.5534 197.923 62.3008C198.308 62.0482 198.754 61.9219 199.259 61.9219C199.649 61.9219 199.958 61.987 200.185 62.1172C200.414 62.2448 200.588 62.3906 200.708 62.5547C200.83 62.7161 200.925 62.849 200.993 62.9531H201.071V60H201.993V68H201.103V67.0781H200.993C200.925 67.1875 200.829 67.3255 200.704 67.4922C200.579 67.6562 200.401 67.8034 200.169 67.9336C199.937 68.0612 199.629 68.125 199.243 68.125ZM199.368 67.2969C199.738 67.2969 200.05 67.2005 200.306 67.0078C200.561 66.8125 200.755 66.543 200.888 66.1992C201.021 65.8529 201.087 65.4531 201.087 65C201.087 64.5521 201.022 64.1602 200.892 63.8242C200.761 63.4857 200.569 63.2227 200.313 63.0352C200.058 62.8451 199.743 62.75 199.368 62.75C198.978 62.75 198.652 62.8503 198.392 63.0508C198.134 63.2487 197.94 63.5182 197.81 63.8594C197.682 64.1979 197.618 64.5781 197.618 65C197.618 65.4271 197.683 65.8151 197.813 66.1641C197.946 66.5104 198.142 66.7865 198.399 66.9922C198.66 67.1953 198.983 67.2969 199.368 67.2969ZM206.325 68.125C205.747 68.125 205.248 67.9974 204.829 67.7422C204.412 67.4844 204.091 67.125 203.864 66.6641C203.64 66.2005 203.528 65.6615 203.528 65.0469C203.528 64.4323 203.64 63.8906 203.864 63.4219C204.091 62.9505 204.406 62.5833 204.81 62.3203C205.216 62.0547 205.69 61.9219 206.231 61.9219C206.544 61.9219 206.853 61.974 207.157 62.0781C207.462 62.1823 207.739 62.3516 207.989 62.5859C208.239 62.8177 208.438 63.125 208.587 63.5078C208.735 63.8906 208.81 64.362 208.81 64.9219V65.3125H204.185V64.5156H207.872C207.872 64.1771 207.804 63.875 207.669 63.6094C207.536 63.3437 207.346 63.1341 207.099 62.9805C206.854 62.8268 206.565 62.75 206.231 62.75C205.864 62.75 205.547 62.8411 205.278 63.0234C205.013 63.2031 204.808 63.4375 204.665 63.7266C204.522 64.0156 204.45 64.3255 204.45 64.6562V65.1875C204.45 65.6406 204.528 66.0247 204.685 66.3398C204.843 66.6523 205.063 66.8906 205.345 67.0547C205.626 67.2161 205.953 67.2969 206.325 67.2969C206.567 67.2969 206.786 67.263 206.981 67.1953C207.179 67.125 207.35 67.0208 207.493 66.8828C207.636 66.7422 207.747 66.5677 207.825 66.3594L208.716 66.6094C208.622 66.9115 208.465 67.1771 208.243 67.4062C208.022 67.6328 207.748 67.8099 207.423 67.9375C207.097 68.0625 206.731 68.125 206.325 68.125ZM212.728 68.125C212.149 68.125 211.651 67.9974 211.231 67.7422C210.815 67.4844 210.493 67.125 210.267 66.6641C210.043 66.2005 209.931 65.6615 209.931 65.0469C209.931 64.4323 210.043 63.8906 210.267 63.4219C210.493 62.9505 210.808 62.5833 211.212 62.3203C211.618 62.0547 212.092 61.9219 212.634 61.9219C212.946 61.9219 213.255 61.974 213.56 62.0781C213.864 62.1823 214.142 62.3516 214.392 62.5859C214.642 62.8177 214.841 63.125 214.989 63.5078C215.138 63.8906 215.212 64.362 215.212 64.9219V65.3125H210.587V64.5156H214.274C214.274 64.1771 214.207 63.875 214.071 63.6094C213.938 63.3437 213.748 63.1341 213.501 62.9805C213.256 62.8268 212.967 62.75 212.634 62.75C212.267 62.75 211.949 62.8411 211.681 63.0234C211.415 63.2031 211.211 63.4375 211.067 63.7266C210.924 64.0156 210.853 64.3255 210.853 64.6562V65.1875C210.853 65.6406 210.931 66.0247 211.087 66.3398C211.246 66.6523 211.466 66.8906 211.747 67.0547C212.028 67.2161 212.355 67.2969 212.728 67.2969C212.97 67.2969 213.188 67.263 213.384 67.1953C213.582 67.125 213.752 67.0208 213.896 66.8828C214.039 66.7422 214.149 66.5677 214.228 66.3594L215.118 66.6094C215.024 66.9115 214.867 67.1771 214.646 67.4062C214.424 67.6328 214.151 67.8099 213.825 67.9375C213.5 68.0625 213.134 68.125 212.728 68.125ZM216.614 68V62H217.505V62.9375H217.583C217.708 62.6172 217.91 62.3685 218.188 62.1914C218.467 62.0117 218.802 61.9219 219.192 61.9219C219.588 61.9219 219.918 62.0117 220.181 62.1914C220.446 62.3685 220.653 62.6172 220.802 62.9375H220.864C221.018 62.6276 221.248 62.3815 221.556 62.1992C221.863 62.0143 222.231 61.9219 222.661 61.9219C223.198 61.9219 223.636 62.0898 223.978 62.4258C224.319 62.7591 224.489 63.2786 224.489 63.9844V68H223.567V63.9844C223.567 63.5417 223.446 63.2253 223.204 63.0352C222.962 62.8451 222.677 62.75 222.349 62.75C221.927 62.75 221.6 62.8776 221.368 63.1328C221.136 63.3854 221.021 63.7057 221.021 64.0937V68H220.083V63.8906C220.083 63.5495 219.972 63.2747 219.751 63.0664C219.53 62.8555 219.244 62.75 218.896 62.75C218.656 62.75 218.432 62.8138 218.224 62.9414C218.018 63.069 217.851 63.2461 217.724 63.4727C217.599 63.6966 217.536 63.9557 217.536 64.25V68H216.614ZM231.878 62V62.7812H228.769V62H231.878ZM229.675 60.5625H230.597V66.2812C230.597 66.5417 230.634 66.737 230.71 66.8672C230.788 66.9948 230.887 67.0807 231.007 67.125C231.129 67.1667 231.258 67.1875 231.394 67.1875C231.495 67.1875 231.578 67.1823 231.644 67.1719C231.709 67.1589 231.761 67.1484 231.8 67.1406L231.987 67.9687C231.925 67.9922 231.838 68.0156 231.726 68.0391C231.614 68.0651 231.472 68.0781 231.3 68.0781C231.039 68.0781 230.784 68.0221 230.534 67.9102C230.287 67.7982 230.081 67.6276 229.917 67.3984C229.756 67.1693 229.675 66.8802 229.675 66.5312V60.5625ZM235.638 68.125C235.096 68.125 234.621 67.9961 234.212 67.7383C233.806 67.4805 233.488 67.1198 233.259 66.6562C233.032 66.1927 232.919 65.651 232.919 65.0312C232.919 64.4062 233.032 63.8607 233.259 63.3945C233.488 62.9284 233.806 62.5664 234.212 62.3086C234.621 62.0508 235.096 61.9219 235.638 61.9219C236.179 61.9219 236.653 62.0508 237.06 62.3086C237.468 62.5664 237.786 62.9284 238.013 63.3945C238.242 63.8607 238.356 64.4062 238.356 65.0312C238.356 65.651 238.242 66.1927 238.013 66.6562C237.786 67.1198 237.468 67.4805 237.06 67.7383C236.653 67.9961 236.179 68.125 235.638 68.125ZM235.638 67.2969C236.049 67.2969 236.388 67.1914 236.653 66.9805C236.919 66.7695 237.116 66.4922 237.243 66.1484C237.371 65.8047 237.435 65.4323 237.435 65.0312C237.435 64.6302 237.371 64.2565 237.243 63.9102C237.116 63.5638 236.919 63.2839 236.653 63.0703C236.388 62.8568 236.049 62.75 235.638 62.75C235.226 62.75 234.888 62.8568 234.622 63.0703C234.356 63.2839 234.16 63.5638 234.032 63.9102C233.905 64.2565 233.841 64.6302 233.841 65.0312C233.841 65.4323 233.905 65.8047 234.032 66.1484C234.16 66.4922 234.356 66.7695 234.622 66.9805C234.888 67.1914 235.226 67.2969 235.638 67.2969ZM240.623 65.8125L240.607 64.6719H240.795L243.42 62H244.561L241.764 64.8281H241.686L240.623 65.8125ZM239.764 68V60H240.686V68H239.764ZM243.576 68L241.232 65.0312L241.889 64.3906L244.748 68H243.576ZM248.016 68.125C247.438 68.125 246.939 67.9974 246.52 67.7422C246.103 67.4844 245.781 67.125 245.555 66.6641C245.331 66.2005 245.219 65.6615 245.219 65.0469C245.219 64.4323 245.331 63.8906 245.555 63.4219C245.781 62.9505 246.096 62.5833 246.5 62.3203C246.906 62.0547 247.38 61.9219 247.922 61.9219C248.234 61.9219 248.543 61.974 248.848 62.0781C249.152 62.1823 249.43 62.3516 249.68 62.5859C249.93 62.8177 250.129 63.125 250.277 63.5078C250.426 63.8906 250.5 64.362 250.5 64.9219V65.3125H245.875V64.5156H249.563C249.563 64.1771 249.495 63.875 249.359 63.6094C249.227 63.3437 249.036 63.1341 248.789 62.9805C248.544 62.8268 248.255 62.75 247.922 62.75C247.555 62.75 247.237 62.8411 246.969 63.0234C246.703 63.2031 246.499 63.4375 246.355 63.7266C246.212 64.0156 246.141 64.3255 246.141 64.6562V65.1875C246.141 65.6406 246.219 66.0247 246.375 66.3398C246.534 66.6523 246.754 66.8906 247.035 67.0547C247.316 67.2161 247.643 67.2969 248.016 67.2969C248.258 67.2969 248.477 67.263 248.672 67.1953C248.87 67.125 249.04 67.0208 249.184 66.8828C249.327 66.7422 249.438 66.5677 249.516 66.3594L250.406 66.6094C250.313 66.9115 250.155 67.1771 249.934 67.4062C249.712 67.6328 249.439 67.8099 249.113 67.9375C248.788 68.0625 248.422 68.125 248.016 68.125ZM252.824 64.3906V68H251.902V62H252.793V62.9375H252.871C253.012 62.6328 253.225 62.388 253.512 62.2031C253.798 62.0156 254.168 61.9219 254.621 61.9219C255.027 61.9219 255.383 62.0052 255.688 62.1719C255.992 62.3359 256.229 62.5859 256.398 62.9219C256.568 63.2552 256.652 63.6771 256.652 64.1875V68H255.73V64.25C255.73 63.7786 255.608 63.4115 255.363 63.1484C255.118 62.8828 254.783 62.75 254.355 62.75C254.061 62.75 253.798 62.8138 253.566 62.9414C253.337 63.069 253.156 63.2552 253.023 63.5C252.891 63.7448 252.824 64.0417 252.824 64.3906ZM262.587 63.3437L261.759 63.5781C261.707 63.4401 261.63 63.306 261.528 63.1758C261.429 63.043 261.294 62.9336 261.122 62.8477C260.95 62.7617 260.73 62.7187 260.462 62.7187C260.095 62.7187 259.789 62.8034 259.544 62.9727C259.302 63.1393 259.181 63.3516 259.181 63.6094C259.181 63.8385 259.264 64.0195 259.431 64.1523C259.597 64.2852 259.858 64.3958 260.212 64.4844L261.103 64.7031C261.639 64.8333 262.039 65.0326 262.302 65.3008C262.565 65.5664 262.696 65.9089 262.696 66.3281C262.696 66.6719 262.597 66.9792 262.399 67.25C262.204 67.5208 261.931 67.7344 261.579 67.8906C261.228 68.0469 260.819 68.125 260.353 68.125C259.741 68.125 259.234 67.9922 258.833 67.7266C258.432 67.4609 258.178 67.0729 258.071 66.5625L258.946 66.3437C259.03 66.6667 259.187 66.9089 259.419 67.0703C259.653 67.2318 259.959 67.3125 260.337 67.3125C260.767 67.3125 261.108 67.2214 261.36 67.0391C261.616 66.8542 261.743 66.6328 261.743 66.375C261.743 66.1667 261.67 65.9922 261.524 65.8516C261.379 65.7083 261.155 65.6016 260.853 65.5312L259.853 65.2969C259.303 65.1667 258.899 64.9648 258.642 64.6914C258.386 64.4154 258.259 64.0703 258.259 63.6562C258.259 63.3177 258.354 63.0182 258.544 62.7578C258.737 62.4974 258.998 62.293 259.329 62.1445C259.662 61.9961 260.04 61.9219 260.462 61.9219C261.056 61.9219 261.522 62.0521 261.86 62.3125C262.201 62.5729 262.444 62.9167 262.587 63.3437Z" fill="black"/>
<rect x="158" y="242" width="22" height="22" rx="11" fill="#FFC012"/>
<path d="M168.999 257.119C168.386 257.119 167.84 257.014 167.363 256.804C166.889 256.594 166.514 256.301 166.238 255.926C165.963 255.551 165.816 255.118 165.799 254.626H167.401C167.416 254.862 167.494 255.068 167.636 255.244C167.778 255.418 167.967 255.553 168.203 255.649C168.438 255.746 168.703 255.794 168.995 255.794C169.308 255.794 169.585 255.74 169.826 255.632C170.068 255.521 170.257 255.368 170.393 255.172C170.529 254.976 170.596 254.75 170.593 254.494C170.596 254.23 170.528 253.997 170.389 253.795C170.249 253.594 170.048 253.436 169.784 253.322C169.522 253.209 169.207 253.152 168.838 253.152H168.066V251.933H168.838C169.142 251.933 169.407 251.881 169.634 251.776C169.865 251.67 170.045 251.523 170.176 251.332C170.306 251.139 170.37 250.916 170.367 250.663C170.37 250.416 170.315 250.202 170.201 250.02C170.09 249.835 169.933 249.692 169.728 249.589C169.526 249.487 169.289 249.436 169.017 249.436C168.749 249.436 168.502 249.484 168.275 249.581C168.048 249.678 167.865 249.815 167.725 249.994C167.586 250.17 167.512 250.381 167.504 250.625H165.982C165.994 250.136 166.134 249.707 166.404 249.338C166.677 248.966 167.041 248.676 167.495 248.469C167.95 248.259 168.46 248.153 169.025 248.153C169.607 248.153 170.113 248.263 170.542 248.482C170.974 248.697 171.308 248.989 171.544 249.355C171.779 249.722 171.897 250.126 171.897 250.57C171.9 251.061 171.755 251.473 171.463 251.805C171.173 252.138 170.792 252.355 170.32 252.457V252.526C170.934 252.611 171.404 252.838 171.731 253.207C172.061 253.574 172.224 254.03 172.221 254.575C172.221 255.064 172.082 255.501 171.803 255.888C171.528 256.271 171.147 256.572 170.661 256.791C170.178 257.01 169.624 257.119 168.999 257.119Z" fill="black"/>
<path d="M189.462 257V249H192.166C192.791 249 193.304 249.107 193.705 249.32C194.106 249.531 194.403 249.822 194.595 250.191C194.788 250.561 194.884 250.982 194.884 251.453C194.884 251.924 194.788 252.342 194.595 252.707C194.403 253.072 194.107 253.358 193.708 253.566C193.31 253.772 192.801 253.875 192.181 253.875H189.994V253H192.15C192.577 253 192.921 252.937 193.181 252.812C193.444 252.687 193.634 252.51 193.751 252.281C193.871 252.049 193.931 251.773 193.931 251.453C193.931 251.133 193.871 250.853 193.751 250.613C193.632 250.374 193.44 250.189 193.177 250.059C192.914 249.926 192.567 249.859 192.134 249.859H190.431V257H189.462ZM193.228 253.406L195.197 257H194.072L192.134 253.406H193.228ZM198.825 257.125C198.247 257.125 197.748 256.997 197.329 256.742C196.912 256.484 196.59 256.125 196.364 255.664C196.14 255.201 196.028 254.661 196.028 254.047C196.028 253.432 196.14 252.891 196.364 252.422C196.59 251.951 196.905 251.583 197.309 251.32C197.715 251.055 198.189 250.922 198.731 250.922C199.043 250.922 199.352 250.974 199.657 251.078C199.961 251.182 200.239 251.352 200.489 251.586C200.739 251.818 200.938 252.125 201.086 252.508C201.235 252.891 201.309 253.362 201.309 253.922V254.312H196.684V253.516H200.372C200.372 253.177 200.304 252.875 200.168 252.609C200.036 252.344 199.846 252.134 199.598 251.98C199.353 251.827 199.064 251.75 198.731 251.75C198.364 251.75 198.046 251.841 197.778 252.023C197.512 252.203 197.308 252.437 197.165 252.727C197.021 253.016 196.95 253.326 196.95 253.656V254.188C196.95 254.641 197.028 255.025 197.184 255.34C197.343 255.652 197.563 255.891 197.844 256.055C198.125 256.216 198.452 256.297 198.825 256.297C199.067 256.297 199.286 256.263 199.481 256.195C199.679 256.125 199.849 256.021 199.993 255.883C200.136 255.742 200.247 255.568 200.325 255.359L201.215 255.609C201.122 255.911 200.964 256.177 200.743 256.406C200.521 256.633 200.248 256.81 199.922 256.937C199.597 257.063 199.231 257.125 198.825 257.125ZM205.149 257.125C204.586 257.125 204.102 256.992 203.696 256.727C203.29 256.461 202.977 256.095 202.758 255.629C202.54 255.163 202.43 254.63 202.43 254.031C202.43 253.422 202.542 252.884 202.766 252.418C202.993 251.949 203.308 251.583 203.711 251.32C204.118 251.055 204.592 250.922 205.133 250.922C205.555 250.922 205.935 251 206.274 251.156C206.612 251.312 206.89 251.531 207.106 251.812C207.322 252.094 207.456 252.422 207.508 252.797H206.586C206.516 252.523 206.36 252.281 206.118 252.07C205.878 251.857 205.555 251.75 205.149 251.75C204.79 251.75 204.474 251.844 204.204 252.031C203.935 252.216 203.726 252.478 203.575 252.816C203.426 253.152 203.352 253.547 203.352 254C203.352 254.464 203.425 254.867 203.571 255.211C203.719 255.555 203.928 255.822 204.196 256.012C204.467 256.202 204.784 256.297 205.149 256.297C205.389 256.297 205.606 256.255 205.801 256.172C205.997 256.089 206.162 255.969 206.297 255.812C206.433 255.656 206.529 255.469 206.586 255.25H207.508C207.456 255.604 207.327 255.923 207.122 256.207C206.918 256.488 206.649 256.712 206.313 256.879C205.98 257.043 205.592 257.125 205.149 257.125ZM211.372 257.125C210.793 257.125 210.295 256.997 209.875 256.742C209.459 256.484 209.137 256.125 208.911 255.664C208.687 255.201 208.575 254.661 208.575 254.047C208.575 253.432 208.687 252.891 208.911 252.422C209.137 251.951 209.452 251.583 209.856 251.32C210.262 251.055 210.736 250.922 211.278 250.922C211.59 250.922 211.899 250.974 212.204 251.078C212.508 251.182 212.786 251.352 213.036 251.586C213.286 251.818 213.485 252.125 213.633 252.508C213.782 252.891 213.856 253.362 213.856 253.922V254.312H209.231V253.516H212.918C212.918 253.177 212.851 252.875 212.715 252.609C212.583 252.344 212.392 252.134 212.145 251.98C211.9 251.827 211.611 251.75 211.278 251.75C210.911 251.75 210.593 251.841 210.325 252.023C210.059 252.203 209.855 252.437 209.711 252.727C209.568 253.016 209.497 253.326 209.497 253.656V254.188C209.497 254.641 209.575 255.025 209.731 255.34C209.89 255.652 210.11 255.891 210.391 256.055C210.672 256.216 210.999 256.297 211.372 256.297C211.614 256.297 211.833 256.263 212.028 256.195C212.226 256.125 212.396 256.021 212.54 255.883C212.683 255.742 212.793 255.568 212.872 255.359L213.762 255.609C213.668 255.911 213.511 256.177 213.29 256.406C213.068 256.633 212.795 256.81 212.469 256.937C212.144 257.063 211.778 257.125 211.372 257.125ZM215.258 257V251H216.18V257H215.258ZM215.727 250C215.547 250 215.392 249.939 215.262 249.816C215.135 249.694 215.071 249.547 215.071 249.375C215.071 249.203 215.135 249.056 215.262 248.934C215.392 248.811 215.547 248.75 215.727 248.75C215.907 248.75 216.06 248.811 216.188 248.934C216.318 249.056 216.383 249.203 216.383 249.375C216.383 249.547 216.318 249.694 216.188 249.816C216.06 249.939 215.907 250 215.727 250ZM222.775 251L220.556 257H219.619L217.4 251H218.4L220.056 255.781H220.119L221.775 251H222.775ZM226.292 257.125C225.714 257.125 225.216 256.997 224.796 256.742C224.38 256.484 224.058 256.125 223.832 255.664C223.608 255.201 223.496 254.661 223.496 254.047C223.496 253.432 223.608 252.891 223.832 252.422C224.058 251.951 224.373 251.583 224.777 251.32C225.183 251.055 225.657 250.922 226.199 250.922C226.511 250.922 226.82 250.974 227.125 251.078C227.429 251.182 227.707 251.352 227.957 251.586C228.207 251.818 228.406 252.125 228.554 252.508C228.703 252.891 228.777 253.362 228.777 253.922V254.312H224.152V253.516H227.839C227.839 253.177 227.772 252.875 227.636 252.609C227.503 252.344 227.313 252.134 227.066 251.98C226.821 251.827 226.532 251.75 226.199 251.75C225.832 251.75 225.514 251.841 225.246 252.023C224.98 252.203 224.776 252.437 224.632 252.727C224.489 253.016 224.417 253.326 224.417 253.656V254.188C224.417 254.641 224.496 255.025 224.652 255.34C224.811 255.652 225.031 255.891 225.312 256.055C225.593 256.216 225.92 256.297 226.292 256.297C226.535 256.297 226.753 256.263 226.949 256.195C227.147 256.125 227.317 256.021 227.46 255.883C227.604 255.742 227.714 255.568 227.792 255.359L228.683 255.609C228.589 255.911 228.432 256.177 228.21 256.406C227.989 256.633 227.716 256.81 227.39 256.937C227.065 257.063 226.699 257.125 226.292 257.125ZM238.648 249H239.617V254.297C239.617 254.844 239.488 255.332 239.23 255.762C238.975 256.189 238.614 256.526 238.148 256.773C237.682 257.018 237.135 257.141 236.507 257.141C235.88 257.141 235.333 257.018 234.867 256.773C234.401 256.526 234.039 256.189 233.781 255.762C233.526 255.332 233.398 254.844 233.398 254.297V249H234.367V254.219C234.367 254.609 234.453 254.957 234.625 255.262C234.796 255.564 235.041 255.802 235.359 255.977C235.679 256.148 236.062 256.234 236.507 256.234C236.953 256.234 237.335 256.148 237.656 255.977C237.976 255.802 238.221 255.564 238.39 255.262C238.562 254.957 238.648 254.609 238.648 254.219V249ZM245.926 251C245.879 250.604 245.689 250.297 245.356 250.078C245.023 249.859 244.614 249.75 244.129 249.75C243.775 249.75 243.465 249.807 243.2 249.922C242.937 250.036 242.731 250.194 242.583 250.395C242.437 250.595 242.364 250.823 242.364 251.078C242.364 251.292 242.415 251.475 242.516 251.629C242.62 251.78 242.753 251.906 242.915 252.008C243.076 252.107 243.245 252.189 243.422 252.254C243.599 252.316 243.762 252.367 243.911 252.406L244.723 252.625C244.931 252.68 245.163 252.755 245.418 252.852C245.676 252.948 245.922 253.079 246.157 253.246C246.394 253.41 246.589 253.621 246.743 253.879C246.896 254.137 246.973 254.453 246.973 254.828C246.973 255.26 246.86 255.651 246.633 256C246.409 256.349 246.081 256.626 245.649 256.832C245.219 257.038 244.697 257.141 244.083 257.141C243.51 257.141 243.014 257.048 242.594 256.863C242.178 256.678 241.849 256.421 241.61 256.09C241.373 255.759 241.239 255.375 241.208 254.938H242.208C242.234 255.24 242.335 255.49 242.512 255.687C242.692 255.883 242.918 256.029 243.192 256.125C243.468 256.219 243.765 256.266 244.083 256.266C244.452 256.266 244.784 256.206 245.079 256.086C245.373 255.964 245.606 255.794 245.778 255.578C245.95 255.359 246.036 255.104 246.036 254.812C246.036 254.547 245.961 254.331 245.813 254.164C245.665 253.997 245.469 253.862 245.227 253.758C244.985 253.654 244.723 253.562 244.442 253.484L243.458 253.203C242.833 253.023 242.338 252.767 241.973 252.434C241.609 252.1 241.426 251.664 241.426 251.125C241.426 250.677 241.547 250.286 241.79 249.953C242.034 249.617 242.362 249.357 242.774 249.172C243.188 248.984 243.65 248.891 244.161 248.891C244.676 248.891 245.135 248.983 245.536 249.168C245.937 249.35 246.254 249.6 246.489 249.918C246.726 250.236 246.851 250.596 246.864 251H245.926ZM251.035 257H248.566V249H251.144C251.92 249 252.584 249.16 253.136 249.48C253.688 249.798 254.111 250.255 254.406 250.852C254.7 251.445 254.847 252.156 254.847 252.984C254.847 253.818 254.699 254.535 254.402 255.137C254.105 255.736 253.673 256.197 253.105 256.52C252.537 256.84 251.847 257 251.035 257ZM249.535 256.141H250.972C251.634 256.141 252.182 256.013 252.617 255.758C253.052 255.503 253.376 255.139 253.589 254.668C253.803 254.197 253.91 253.635 253.91 252.984C253.91 252.339 253.804 251.783 253.593 251.316C253.382 250.848 253.067 250.488 252.648 250.238C252.229 249.986 251.707 249.859 251.082 249.859H249.535V256.141ZM262.91 251.5H261.941C261.884 251.221 261.783 250.977 261.64 250.766C261.5 250.555 261.328 250.378 261.125 250.234C260.924 250.089 260.701 249.979 260.457 249.906C260.212 249.833 259.957 249.797 259.691 249.797C259.207 249.797 258.768 249.919 258.375 250.164C257.984 250.409 257.673 250.77 257.441 251.246C257.212 251.723 257.097 252.307 257.097 253C257.097 253.693 257.212 254.277 257.441 254.754C257.673 255.23 257.984 255.591 258.375 255.836C258.768 256.081 259.207 256.203 259.691 256.203C259.957 256.203 260.212 256.167 260.457 256.094C260.701 256.021 260.924 255.913 261.125 255.77C261.328 255.624 261.5 255.445 261.64 255.234C261.783 255.021 261.884 254.776 261.941 254.5H262.91C262.837 254.909 262.704 255.275 262.511 255.598C262.319 255.921 262.079 256.195 261.792 256.422C261.506 256.646 261.184 256.816 260.828 256.934C260.473 257.051 260.095 257.109 259.691 257.109C259.009 257.109 258.402 256.943 257.871 256.609C257.339 256.276 256.921 255.802 256.617 255.187C256.312 254.573 256.16 253.844 256.16 253C256.16 252.156 256.312 251.427 256.617 250.812C256.921 250.198 257.339 249.724 257.871 249.391C258.402 249.057 259.009 248.891 259.691 248.891C260.095 248.891 260.473 248.949 260.828 249.066C261.184 249.184 261.506 249.355 261.792 249.582C262.079 249.806 262.319 250.079 262.511 250.402C262.704 250.723 262.837 251.089 262.91 251.5Z" fill="black"/>
<path d="M212.5 124C223.546 124 232.5 132.954 232.5 144C232.5 155.046 223.546 164 212.5 164C201.454 164 192.5 155.046 192.5 144C192.5 132.954 201.454 124 212.5 124ZM212.5 161.284C222.046 161.284 229.785 153.546 229.785 144C229.785 134.454 222.046 126.715 212.5 126.715C202.954 126.715 195.215 134.454 195.215 144C195.215 153.546 202.954 161.285 212.5 161.285V161.284Z" fill="#1F2A37"/>
<path d="M210.916 144C210.916 144.875 211.626 145.585 212.502 145.584C213.377 145.583 214.085 144.848 214.084 143.976C214.08 140.542 213.208 133.716 212.76 131.52C212.703 131.238 212.299 131.238 212.241 131.52C211.793 133.731 210.916 140.599 210.916 144V144Z" fill="black"/>
<path d="M214.264 145.26C216.823 145.105 219.591 144.552 221.101 144.244C221.328 144.198 221.327 143.874 221.101 143.828C219.68 143.539 217.094 143.03 214.662 142.84C214.68 143.229 214.69 143.609 214.69 143.975C214.691 144.455 214.592 144.906 214.264 145.26Z" fill="black"/>
<path d="M212.5 129.068C212.1 129.068 211.776 128.744 211.776 128.344C211.776 127.944 212.1 127.62 212.5 127.62C212.9 127.62 213.224 127.944 213.224 128.344C213.224 128.744 212.9 129.068 212.5 129.068Z" fill="black"/>
<path d="M228.156 144.724C227.756 144.724 227.432 144.4 227.432 144C227.432 143.6 227.756 143.276 228.156 143.276C228.556 143.276 228.88 143.6 228.88 144C228.88 144.4 228.556 144.724 228.156 144.724Z" fill="black"/>
<path d="M212.5 160.38C212.1 160.38 211.776 160.056 211.776 159.656C211.776 159.256 212.1 158.932 212.5 158.932C212.9 158.932 213.224 159.256 213.224 159.656C213.224 160.056 212.9 160.38 212.5 160.38Z" fill="black"/>
<path d="M196.844 144.724C196.444 144.724 196.12 144.4 196.12 144C196.12 143.6 196.444 143.276 196.844 143.276C197.244 143.276 197.568 143.6 197.568 144C197.568 144.4 197.244 144.724 196.844 144.724Z" fill="black"/>
<rect x="182.5" y="115" width="22" height="22" rx="11" fill="#FFC012"/>
<path d="M190.549 130V128.858L193.579 125.888C193.869 125.595 194.11 125.335 194.303 125.108C194.496 124.881 194.641 124.661 194.738 124.447C194.835 124.234 194.883 124.007 194.883 123.766C194.883 123.49 194.82 123.254 194.695 123.058C194.57 122.859 194.398 122.706 194.18 122.598C193.961 122.49 193.712 122.436 193.434 122.436C193.147 122.436 192.896 122.496 192.68 122.615C192.464 122.732 192.296 122.898 192.177 123.114C192.06 123.33 192.002 123.587 192.002 123.885H190.498C190.498 123.331 190.624 122.849 190.877 122.44C191.13 122.031 191.478 121.714 191.921 121.49C192.367 121.266 192.879 121.153 193.455 121.153C194.04 121.153 194.555 121.263 194.998 121.482C195.441 121.7 195.785 122 196.029 122.381C196.276 122.761 196.4 123.196 196.4 123.685C196.4 124.011 196.337 124.332 196.212 124.648C196.087 124.963 195.867 125.312 195.552 125.696C195.239 126.08 194.8 126.544 194.235 127.089L192.731 128.619V128.679H196.532V130H190.549Z" fill="black"/>
<path d="M191.845 182L189.657 174H190.642L192.313 180.516H192.392L194.095 174H195.188L196.892 180.516H196.97L198.642 174H199.626L197.438 182H196.438L194.673 175.625H194.61L192.845 182H191.845ZM201.915 182.141C201.535 182.141 201.19 182.069 200.88 181.926C200.57 181.78 200.324 181.57 200.142 181.297C199.959 181.021 199.868 180.687 199.868 180.297C199.868 179.953 199.936 179.674 200.071 179.461C200.207 179.245 200.388 179.076 200.614 178.953C200.841 178.831 201.091 178.74 201.364 178.68C201.64 178.617 201.918 178.568 202.196 178.531C202.561 178.484 202.856 178.449 203.083 178.426C203.312 178.4 203.479 178.357 203.583 178.297C203.69 178.237 203.743 178.133 203.743 177.984V177.953C203.743 177.568 203.638 177.268 203.427 177.055C203.218 176.841 202.902 176.734 202.478 176.734C202.037 176.734 201.692 176.831 201.442 177.023C201.192 177.216 201.017 177.422 200.915 177.641L200.04 177.328C200.196 176.964 200.405 176.68 200.665 176.477C200.928 176.271 201.215 176.128 201.524 176.047C201.837 175.964 202.144 175.922 202.446 175.922C202.639 175.922 202.86 175.945 203.11 175.992C203.363 176.036 203.606 176.129 203.841 176.27C204.078 176.41 204.274 176.622 204.431 176.906C204.587 177.19 204.665 177.57 204.665 178.047V182H203.743V181.187H203.696C203.634 181.318 203.53 181.457 203.384 181.605C203.238 181.754 203.044 181.88 202.802 181.984C202.56 182.089 202.264 182.141 201.915 182.141ZM202.056 181.312C202.42 181.312 202.728 181.241 202.978 181.098C203.23 180.954 203.42 180.77 203.548 180.543C203.678 180.316 203.743 180.078 203.743 179.828V178.984C203.704 179.031 203.618 179.074 203.485 179.113C203.355 179.15 203.204 179.182 203.032 179.211C202.863 179.237 202.698 179.26 202.536 179.281C202.377 179.299 202.248 179.315 202.149 179.328C201.91 179.359 201.686 179.41 201.478 179.48C201.272 179.548 201.105 179.651 200.978 179.789C200.853 179.924 200.79 180.109 200.79 180.344C200.79 180.664 200.909 180.906 201.146 181.07C201.385 181.232 201.688 181.312 202.056 181.312ZM206.348 182V176H207.27V182H206.348ZM206.816 175C206.637 175 206.482 174.939 206.352 174.816C206.224 174.694 206.16 174.547 206.16 174.375C206.16 174.203 206.224 174.056 206.352 173.934C206.482 173.811 206.637 173.75 206.816 173.75C206.996 173.75 207.15 173.811 207.277 173.934C207.408 174.056 207.473 174.203 207.473 174.375C207.473 174.547 207.408 174.694 207.277 174.816C207.15 174.939 206.996 175 206.816 175ZM211.567 176V176.781H208.458V176H211.567ZM209.364 174.562H210.286V180.281C210.286 180.542 210.324 180.737 210.399 180.867C210.478 180.995 210.576 181.081 210.696 181.125C210.819 181.167 210.948 181.187 211.083 181.187C211.185 181.187 211.268 181.182 211.333 181.172C211.398 181.159 211.45 181.148 211.489 181.141L211.677 181.969C211.614 181.992 211.527 182.016 211.415 182.039C211.303 182.065 211.161 182.078 210.989 182.078C210.729 182.078 210.474 182.022 210.224 181.91C209.976 181.798 209.771 181.628 209.606 181.398C209.445 181.169 209.364 180.88 209.364 180.531V174.562ZM218.72 176V176.781H215.485V176H218.72ZM216.454 182V175.172C216.454 174.828 216.535 174.542 216.696 174.312C216.858 174.083 217.067 173.911 217.325 173.797C217.583 173.682 217.855 173.625 218.142 173.625C218.368 173.625 218.553 173.643 218.696 173.68C218.84 173.716 218.946 173.75 219.017 173.781L218.751 174.578C218.704 174.562 218.639 174.543 218.556 174.52C218.475 174.496 218.368 174.484 218.235 174.484C217.931 174.484 217.711 174.561 217.575 174.715C217.442 174.868 217.376 175.094 217.376 175.391V182H216.454ZM222.202 182.125C221.66 182.125 221.185 181.996 220.776 181.738C220.37 181.48 220.052 181.12 219.823 180.656C219.597 180.193 219.483 179.651 219.483 179.031C219.483 178.406 219.597 177.861 219.823 177.395C220.052 176.928 220.37 176.566 220.776 176.309C221.185 176.051 221.66 175.922 222.202 175.922C222.744 175.922 223.218 176.051 223.624 176.309C224.033 176.566 224.351 176.928 224.577 177.395C224.806 177.861 224.921 178.406 224.921 179.031C224.921 179.651 224.806 180.193 224.577 180.656C224.351 181.12 224.033 181.48 223.624 181.738C223.218 181.996 222.744 182.125 222.202 182.125ZM222.202 181.297C222.614 181.297 222.952 181.191 223.218 180.98C223.483 180.77 223.68 180.492 223.808 180.148C223.935 179.805 223.999 179.432 223.999 179.031C223.999 178.63 223.935 178.257 223.808 177.91C223.68 177.564 223.483 177.284 223.218 177.07C222.952 176.857 222.614 176.75 222.202 176.75C221.791 176.75 221.452 176.857 221.187 177.07C220.921 177.284 220.724 177.564 220.597 177.91C220.469 178.257 220.405 178.63 220.405 179.031C220.405 179.432 220.469 179.805 220.597 180.148C220.724 180.492 220.921 180.77 221.187 180.98C221.452 181.191 221.791 181.297 222.202 181.297ZM226.328 182V176H227.219V176.906H227.281C227.391 176.609 227.589 176.368 227.875 176.184C228.161 175.999 228.484 175.906 228.844 175.906C228.911 175.906 228.996 175.908 229.098 175.91C229.199 175.913 229.276 175.917 229.328 175.922V176.859C229.297 176.852 229.225 176.84 229.113 176.824C229.004 176.806 228.888 176.797 228.766 176.797C228.474 176.797 228.214 176.858 227.984 176.98C227.758 177.1 227.578 177.267 227.445 177.48C227.315 177.691 227.25 177.932 227.25 178.203V182H226.328ZM180.636 194V188H181.527V188.906H181.589C181.699 188.609 181.897 188.368 182.183 188.184C182.47 187.999 182.792 187.906 183.152 187.906C183.22 187.906 183.304 187.908 183.406 187.91C183.507 187.913 183.584 187.917 183.636 187.922V188.859C183.605 188.852 183.533 188.84 183.421 188.824C183.312 188.806 183.196 188.797 183.074 188.797C182.782 188.797 182.522 188.858 182.292 188.98C182.066 189.1 181.886 189.267 181.753 189.48C181.623 189.691 181.558 189.932 181.558 190.203V194H180.636ZM187.062 194.125C186.484 194.125 185.985 193.997 185.566 193.742C185.149 193.484 184.828 193.125 184.601 192.664C184.377 192.201 184.265 191.661 184.265 191.047C184.265 190.432 184.377 189.891 184.601 189.422C184.828 188.951 185.143 188.583 185.546 188.32C185.953 188.055 186.427 187.922 186.968 187.922C187.281 187.922 187.589 187.974 187.894 188.078C188.199 188.182 188.476 188.352 188.726 188.586C188.976 188.818 189.175 189.125 189.324 189.508C189.472 189.891 189.546 190.362 189.546 190.922V191.312H184.921V190.516H188.609C188.609 190.177 188.541 189.875 188.406 189.609C188.273 189.344 188.083 189.134 187.835 188.98C187.591 188.827 187.302 188.75 186.968 188.75C186.601 188.75 186.283 188.841 186.015 189.023C185.75 189.203 185.545 189.437 185.402 189.727C185.259 190.016 185.187 190.326 185.187 190.656V191.188C185.187 191.641 185.265 192.025 185.421 192.34C185.58 192.652 185.8 192.891 186.082 193.055C186.363 193.216 186.69 193.297 187.062 193.297C187.304 193.297 187.523 193.263 187.718 193.195C187.916 193.125 188.087 193.021 188.23 192.883C188.373 192.742 188.484 192.568 188.562 192.359L189.453 192.609C189.359 192.911 189.201 193.177 188.98 193.406C188.759 193.633 188.485 193.81 188.16 193.937C187.834 194.063 187.468 194.125 187.062 194.125ZM193.214 194.125C192.714 194.125 192.273 193.999 191.89 193.746C191.507 193.491 191.208 193.132 190.992 192.668C190.776 192.202 190.667 191.651 190.667 191.016C190.667 190.385 190.776 189.839 190.992 189.375C191.208 188.911 191.509 188.553 191.894 188.301C192.279 188.048 192.725 187.922 193.23 187.922C193.621 187.922 193.929 187.987 194.156 188.117C194.385 188.245 194.559 188.391 194.679 188.555C194.802 188.716 194.897 188.849 194.964 188.953H195.042V186H195.964V194H195.074V193.078H194.964C194.897 193.187 194.8 193.326 194.675 193.492C194.55 193.656 194.372 193.803 194.14 193.934C193.908 194.061 193.6 194.125 193.214 194.125ZM193.339 193.297C193.709 193.297 194.022 193.201 194.277 193.008C194.532 192.812 194.726 192.543 194.859 192.199C194.992 191.853 195.058 191.453 195.058 191C195.058 190.552 194.993 190.16 194.863 189.824C194.733 189.486 194.54 189.223 194.285 189.035C194.029 188.845 193.714 188.75 193.339 188.75C192.949 188.75 192.623 188.85 192.363 189.051C192.105 189.249 191.911 189.518 191.781 189.859C191.653 190.198 191.589 190.578 191.589 191C191.589 191.427 191.654 191.815 191.785 192.164C191.917 192.51 192.113 192.786 192.371 192.992C192.631 193.195 192.954 193.297 193.339 193.297ZM200.296 194.125C199.718 194.125 199.22 193.997 198.8 193.742C198.384 193.484 198.062 193.125 197.835 192.664C197.611 192.201 197.5 191.661 197.5 191.047C197.5 190.432 197.611 189.891 197.835 189.422C198.062 188.951 198.377 188.583 198.781 188.32C199.187 188.055 199.661 187.922 200.203 187.922C200.515 187.922 200.824 187.974 201.128 188.078C201.433 188.182 201.71 188.352 201.96 188.586C202.21 188.818 202.41 189.125 202.558 189.508C202.707 189.891 202.781 190.362 202.781 190.922V191.312H198.156V190.516H201.843C201.843 190.177 201.776 189.875 201.64 189.609C201.507 189.344 201.317 189.134 201.07 188.98C200.825 188.827 200.536 188.75 200.203 188.75C199.835 188.75 199.518 188.841 199.25 189.023C198.984 189.203 198.779 189.437 198.636 189.727C198.493 190.016 198.421 190.326 198.421 190.656V191.188C198.421 191.641 198.5 192.025 198.656 192.34C198.815 192.652 199.035 192.891 199.316 193.055C199.597 193.216 199.924 193.297 200.296 193.297C200.539 193.297 200.757 193.263 200.953 193.195C201.151 193.125 201.321 193.021 201.464 192.883C201.608 192.742 201.718 192.568 201.796 192.359L202.687 192.609C202.593 192.911 202.436 193.177 202.214 193.406C201.993 193.633 201.72 193.81 201.394 193.937C201.069 194.063 200.703 194.125 200.296 194.125ZM204.183 194V188H205.074V188.937H205.152C205.277 188.617 205.479 188.368 205.757 188.191C206.036 188.012 206.371 187.922 206.761 187.922C207.157 187.922 207.486 188.012 207.75 188.191C208.015 188.368 208.222 188.617 208.371 188.937H208.433C208.587 188.628 208.817 188.382 209.125 188.199C209.432 188.014 209.8 187.922 210.23 187.922C210.766 187.922 211.205 188.09 211.546 188.426C211.888 188.759 212.058 189.279 212.058 189.984V194H211.136V189.984C211.136 189.542 211.015 189.225 210.773 189.035C210.531 188.845 210.246 188.75 209.917 188.75C209.496 188.75 209.169 188.878 208.937 189.133C208.705 189.385 208.589 189.706 208.589 190.094V194H207.652V189.891C207.652 189.549 207.541 189.275 207.32 189.066C207.098 188.855 206.813 188.75 206.464 188.75C206.225 188.75 206.001 188.814 205.792 188.941C205.587 189.069 205.42 189.246 205.292 189.473C205.167 189.697 205.105 189.956 205.105 190.25V194H204.183ZM213.744 196.25V188H214.634V188.953H214.744C214.811 188.849 214.905 188.716 215.025 188.555C215.147 188.391 215.322 188.245 215.548 188.117C215.778 187.987 216.087 187.922 216.478 187.922C216.983 187.922 217.429 188.048 217.814 188.301C218.199 188.553 218.5 188.911 218.716 189.375C218.932 189.839 219.041 190.385 219.041 191.016C219.041 191.651 218.932 192.202 218.716 192.668C218.5 193.132 218.201 193.491 217.818 193.746C217.435 193.999 216.994 194.125 216.494 194.125C216.108 194.125 215.8 194.061 215.568 193.934C215.336 193.803 215.158 193.656 215.033 193.492C214.908 193.326 214.811 193.187 214.744 193.078H214.666V196.25H213.744ZM214.65 191C214.65 191.453 214.716 191.853 214.849 192.199C214.982 192.543 215.176 192.812 215.431 193.008C215.686 193.201 215.999 193.297 216.369 193.297C216.754 193.297 217.076 193.195 217.333 192.992C217.594 192.786 217.789 192.51 217.919 192.164C218.052 191.815 218.119 191.427 218.119 191C218.119 190.578 218.054 190.198 217.923 189.859C217.796 189.518 217.602 189.249 217.341 189.051C217.083 188.85 216.759 188.75 216.369 188.75C215.994 188.75 215.679 188.845 215.423 189.035C215.168 189.223 214.975 189.486 214.845 189.824C214.715 190.16 214.65 190.552 214.65 191ZM223.056 188V188.781H219.947V188H223.056ZM220.853 186.562H221.775V192.281C221.775 192.542 221.813 192.737 221.888 192.867C221.966 192.995 222.065 193.081 222.185 193.125C222.307 193.167 222.436 193.187 222.572 193.187C222.673 193.187 222.757 193.182 222.822 193.172C222.887 193.159 222.939 193.148 222.978 193.141L223.166 193.969C223.103 193.992 223.016 194.016 222.904 194.039C222.792 194.065 222.65 194.078 222.478 194.078C222.218 194.078 221.962 194.022 221.712 193.91C221.465 193.798 221.259 193.628 221.095 193.398C220.934 193.169 220.853 192.88 220.853 192.531V186.562ZM224.443 194V188H225.365V194H224.443ZM224.912 187C224.732 187 224.577 186.939 224.447 186.816C224.319 186.694 224.255 186.547 224.255 186.375C224.255 186.203 224.319 186.056 224.447 185.934C224.577 185.811 224.732 185.75 224.912 185.75C225.091 185.75 225.245 185.811 225.373 185.934C225.503 186.056 225.568 186.203 225.568 186.375C225.568 186.547 225.503 186.694 225.373 186.816C225.245 186.939 225.091 187 224.912 187ZM229.491 194.125C228.949 194.125 228.474 193.996 228.065 193.738C227.659 193.48 227.341 193.12 227.112 192.656C226.885 192.193 226.772 191.651 226.772 191.031C226.772 190.406 226.885 189.861 227.112 189.395C227.341 188.928 227.659 188.566 228.065 188.309C228.474 188.051 228.949 187.922 229.491 187.922C230.032 187.922 230.506 188.051 230.913 188.309C231.321 188.566 231.639 188.928 231.866 189.395C232.095 189.861 232.209 190.406 232.209 191.031C232.209 191.651 232.095 192.193 231.866 192.656C231.639 193.12 231.321 193.48 230.913 193.738C230.506 193.996 230.032 194.125 229.491 194.125ZM229.491 193.297C229.902 193.297 230.241 193.191 230.506 192.98C230.772 192.77 230.969 192.492 231.096 192.148C231.224 191.805 231.288 191.432 231.288 191.031C231.288 190.63 231.224 190.257 231.096 189.91C230.969 189.564 230.772 189.284 230.506 189.07C230.241 188.857 229.902 188.75 229.491 188.75C229.079 188.75 228.741 188.857 228.475 189.07C228.209 189.284 228.013 189.564 227.885 189.91C227.758 190.257 227.694 190.63 227.694 191.031C227.694 191.432 227.758 191.805 227.885 192.148C228.013 192.492 228.209 192.77 228.475 192.98C228.741 193.191 229.079 193.297 229.491 193.297ZM234.539 190.391V194H233.617V188H234.507V188.937H234.585C234.726 188.633 234.94 188.388 235.226 188.203C235.513 188.016 235.882 187.922 236.335 187.922C236.742 187.922 237.097 188.005 237.402 188.172C237.707 188.336 237.944 188.586 238.113 188.922C238.282 189.255 238.367 189.677 238.367 190.188V194H237.445V190.25C237.445 189.779 237.322 189.411 237.078 189.148C236.833 188.883 236.497 188.75 236.07 188.75C235.776 188.75 235.513 188.814 235.281 188.941C235.052 189.069 234.871 189.255 234.738 189.5C234.605 189.745 234.539 190.042 234.539 190.391Z" fill="black"/>
<circle cx="60" cy="151" r="24" stroke="black"/>
<mask id="mask0_659_777" style="mask-type:alpha" maskUnits="userSpaceOnUse" x="36" y="127" width="48" height="48">
<circle cx="60" cy="151" r="24" fill="#D9D9D9"/>
</mask>
<g mask="url(#mask0_659_777)">
<path d="M59.6746 154.089C65.5949 154.089 70.3942 149.475 70.3942 143.783C70.3942 138.091 65.5949 133.476 59.6746 133.476C53.7543 133.476 48.955 138.091 48.955 143.783C48.955 149.475 53.7543 154.089 59.6746 154.089Z" fill="black"/>
<path d="M75.7769 161.746L75.7769 178.82C75.7769 181.067 73.5477 182.971 70.5483 183.513L70.5483 195.129C70.5483 197.796 67.4086 199.978 63.57 199.978L56.431 199.978C52.5924 199.978 49.4527 197.796 49.4527 195.129L49.4527 183.513C46.4532 182.971 44.224 181.067 44.224 178.82L44.224 161.746C44.224 159.08 47.3638 156.897 51.2023 156.897L68.7986 156.897C72.6372 156.897 75.7769 159.08 75.7769 161.746Z" fill="black"/>
</g>
<path d="M35.252 182.818V193H33.4076V182.818H35.252ZM38.9695 188.526V193H37.1698V185.364H38.89V186.661H38.9795C39.1552 186.234 39.4352 185.894 39.8197 185.642C40.2075 185.39 40.6864 185.264 41.2565 185.264C41.7835 185.264 42.2425 185.377 42.6336 185.602C43.028 185.828 43.3329 186.154 43.5484 186.582C43.7671 187.009 43.8749 187.528 43.8715 188.138V193H42.0718V188.416C42.0718 187.906 41.9392 187.506 41.6741 187.218C41.4123 186.93 41.0493 186.786 40.5853 186.786C40.2704 186.786 39.9904 186.855 39.7451 186.994C39.5032 187.13 39.3126 187.327 39.1734 187.586C39.0375 187.844 38.9695 188.158 38.9695 188.526ZM52.2487 185.364L49.5292 193H47.5406L44.8211 185.364H46.7401L48.4951 191.036H48.5747L50.3346 185.364H52.2487ZM56.615 193.149C55.8493 193.149 55.1881 192.99 54.6313 192.672C54.0778 192.35 53.6519 191.896 53.3536 191.31C53.0553 190.72 52.9062 190.025 52.9062 189.227C52.9062 188.441 53.0553 187.752 53.3536 187.158C53.6552 186.562 54.0761 186.098 54.6164 185.766C55.1566 185.432 55.7913 185.264 56.5205 185.264C56.9912 185.264 57.4353 185.34 57.8529 185.493C58.2738 185.642 58.645 185.874 58.9665 186.189C59.2913 186.504 59.5465 186.905 59.7322 187.392C59.9178 187.876 60.0106 188.453 60.0106 189.122V189.674H53.7513V188.461H58.2854C58.2821 188.116 58.2075 187.81 58.0617 187.541C57.9159 187.269 57.712 187.056 57.4502 186.9C57.1917 186.744 56.8901 186.666 56.5454 186.666C56.1775 186.666 55.8543 186.756 55.5759 186.935C55.2975 187.11 55.0804 187.342 54.9246 187.631C54.7722 187.916 54.6943 188.229 54.691 188.57V189.629C54.691 190.073 54.7722 190.455 54.9346 190.773C55.097 191.088 55.324 191.33 55.6157 191.499C55.9073 191.664 56.2487 191.747 56.6398 191.747C56.9017 191.747 57.1386 191.711 57.3508 191.638C57.5629 191.562 57.7468 191.451 57.9026 191.305C58.0584 191.159 58.176 190.978 58.2556 190.763L59.936 190.952C59.8299 191.396 59.6278 191.784 59.3295 192.115C59.0345 192.443 58.6566 192.698 58.1959 192.881C57.7352 193.06 57.2082 193.149 56.615 193.149ZM67.5686 187.382L65.928 187.561C65.8816 187.395 65.8004 187.24 65.6844 187.094C65.5717 186.948 65.4192 186.83 65.227 186.741C65.0348 186.651 64.7994 186.607 64.521 186.607C64.1465 186.607 63.8316 186.688 63.5764 186.85C63.3245 187.013 63.2003 187.223 63.2036 187.482C63.2003 187.704 63.2815 187.884 63.4472 188.023C63.6162 188.163 63.8946 188.277 64.2824 188.366L65.585 188.645C66.3075 188.801 66.8444 189.048 67.1958 189.386C67.5504 189.724 67.7294 190.166 67.7327 190.713C67.7294 191.194 67.5885 191.618 67.3101 191.986C67.035 192.35 66.6522 192.635 66.1617 192.841C65.6711 193.046 65.1077 193.149 64.4713 193.149C63.5367 193.149 62.7843 192.954 62.2142 192.562C61.6441 192.168 61.3044 191.62 61.195 190.917L62.95 190.748C63.0296 191.093 63.1986 191.353 63.4571 191.528C63.7156 191.704 64.0521 191.792 64.4664 191.792C64.8939 191.792 65.2369 191.704 65.4955 191.528C65.7573 191.353 65.8882 191.136 65.8882 190.877C65.8882 190.658 65.8037 190.478 65.6347 190.335C65.469 190.193 65.2104 190.083 64.8591 190.007L63.5566 189.734C62.8241 189.581 62.2822 189.324 61.9308 188.963C61.5795 188.598 61.4055 188.138 61.4088 187.581C61.4055 187.11 61.5331 186.703 61.7916 186.358C62.0535 186.01 62.4164 185.741 62.8804 185.553C63.3477 185.36 63.8863 185.264 64.4962 185.264C65.3911 185.264 66.0954 185.455 66.6091 185.836C67.1262 186.217 67.446 186.732 67.5686 187.382ZM73.0299 185.364V186.756H68.64V185.364H73.0299ZM69.7238 183.534H71.5235V190.703C71.5235 190.945 71.56 191.131 71.6329 191.26C71.7091 191.386 71.8086 191.472 71.9312 191.518C72.0538 191.565 72.1897 191.588 72.3389 191.588C72.4516 191.588 72.5543 191.58 72.6471 191.563C72.7432 191.547 72.8161 191.532 72.8659 191.518L73.1691 192.925C73.073 192.959 72.9355 192.995 72.7565 193.035C72.5808 193.075 72.3654 193.098 72.1102 193.104C71.6594 193.118 71.2534 193.05 70.8921 192.901C70.5309 192.748 70.2442 192.513 70.032 192.195C69.8232 191.876 69.7205 191.479 69.7238 191.001V183.534ZM77.784 193.149C77.0383 193.149 76.392 192.985 75.8451 192.657C75.2982 192.329 74.874 191.87 74.5724 191.28C74.2741 190.69 74.1249 190 74.1249 189.212C74.1249 188.423 74.2741 187.732 74.5724 187.138C74.874 186.545 75.2982 186.085 75.8451 185.756C76.392 185.428 77.0383 185.264 77.784 185.264C78.5297 185.264 79.176 185.428 79.7229 185.756C80.2698 186.085 80.6924 186.545 80.9907 187.138C81.2923 187.732 81.4431 188.423 81.4431 189.212C81.4431 190 81.2923 190.69 80.9907 191.28C80.6924 191.87 80.2698 192.329 79.7229 192.657C79.176 192.985 78.5297 193.149 77.784 193.149ZM77.7939 191.707C78.1983 191.707 78.5364 191.596 78.8081 191.374C79.0799 191.149 79.2821 190.847 79.4147 190.469C79.5506 190.092 79.6185 189.671 79.6185 189.207C79.6185 188.739 79.5506 188.317 79.4147 187.939C79.2821 187.558 79.0799 187.254 78.8081 187.029C78.5364 186.804 78.1983 186.691 77.7939 186.691C77.3796 186.691 77.0349 186.804 76.7599 187.029C76.4881 187.254 76.2842 187.558 76.1483 187.939C76.0158 188.317 75.9495 188.739 75.9495 189.207C75.9495 189.671 76.0158 190.092 76.1483 190.469C76.2842 190.847 76.4881 191.149 76.7599 191.374C77.0349 191.596 77.3796 191.707 77.7939 191.707ZM82.9706 193V185.364H84.7156V186.636H84.7952C84.9344 186.196 85.173 185.856 85.5111 185.617C85.8525 185.375 86.2419 185.254 86.6794 185.254C86.7789 185.254 86.8899 185.259 87.0125 185.269C87.1385 185.276 87.2429 185.287 87.3257 185.304V186.96C87.2495 186.933 87.1285 186.91 86.9628 186.89C86.8004 186.867 86.643 186.855 86.4905 186.855C86.1624 186.855 85.8674 186.926 85.6056 187.069C85.347 187.208 85.1432 187.402 84.9941 187.651C84.8449 187.899 84.7703 188.186 84.7703 188.511V193H82.9706Z" fill="black"/>
<rect x="306.5" y="136.5" width="89" height="56" fill="white"/>
<rect x="306.5" y="136.5" width="89" height="56" stroke="black"/>
<path d="M329.219 159.818V170H327.374V159.818H329.219ZM337.172 164.382L335.532 164.561C335.485 164.395 335.404 164.24 335.288 164.094C335.175 163.948 335.023 163.83 334.831 163.741C334.638 163.651 334.403 163.607 334.125 163.607C333.75 163.607 333.435 163.688 333.18 163.85C332.928 164.013 332.804 164.223 332.807 164.482C332.804 164.704 332.885 164.884 333.051 165.023C333.22 165.163 333.498 165.277 333.886 165.366L335.188 165.645C335.911 165.801 336.448 166.048 336.799 166.386C337.154 166.724 337.333 167.166 337.336 167.713C337.333 168.194 337.192 168.618 336.914 168.986C336.639 169.35 336.256 169.635 335.765 169.841C335.275 170.046 334.711 170.149 334.075 170.149C333.14 170.149 332.388 169.954 331.818 169.562C331.248 169.168 330.908 168.62 330.799 167.917L332.554 167.748C332.633 168.093 332.802 168.353 333.061 168.528C333.319 168.704 333.656 168.792 334.07 168.792C334.497 168.792 334.84 168.704 335.099 168.528C335.361 168.353 335.492 168.136 335.492 167.877C335.492 167.658 335.407 167.478 335.238 167.335C335.072 167.193 334.814 167.083 334.463 167.007L333.16 166.734C332.428 166.581 331.886 166.324 331.534 165.963C331.183 165.598 331.009 165.138 331.012 164.581C331.009 164.11 331.137 163.703 331.395 163.358C331.657 163.01 332.02 162.741 332.484 162.553C332.951 162.36 333.49 162.264 334.1 162.264C334.995 162.264 335.699 162.455 336.213 162.836C336.73 163.217 337.05 163.732 337.172 164.382ZM344.856 164.382L343.215 164.561C343.169 164.395 343.088 164.24 342.972 164.094C342.859 163.948 342.706 163.83 342.514 163.741C342.322 163.651 342.087 163.607 341.808 163.607C341.434 163.607 341.119 163.688 340.864 163.85C340.612 164.013 340.487 164.223 340.491 164.482C340.487 164.704 340.569 164.884 340.734 165.023C340.903 165.163 341.182 165.277 341.57 165.366L342.872 165.645C343.595 165.801 344.132 166.048 344.483 166.386C344.838 166.724 345.016 167.166 345.02 167.713C345.016 168.194 344.876 168.618 344.597 168.986C344.322 169.35 343.939 169.635 343.449 169.841C342.958 170.046 342.395 170.149 341.758 170.149C340.824 170.149 340.071 169.954 339.501 169.562C338.931 169.168 338.592 168.62 338.482 167.917L340.237 167.748C340.317 168.093 340.486 168.353 340.744 168.528C341.003 168.704 341.339 168.792 341.753 168.792C342.181 168.792 342.524 168.704 342.783 168.528C343.044 168.353 343.175 168.136 343.175 167.877C343.175 167.658 343.091 167.478 342.922 167.335C342.756 167.193 342.498 167.083 342.146 167.007L340.844 166.734C340.111 166.581 339.569 166.324 339.218 165.963C338.867 165.598 338.693 165.138 338.696 164.581C338.693 164.11 338.82 163.703 339.079 163.358C339.341 163.01 339.704 162.741 340.168 162.553C340.635 162.36 341.173 162.264 341.783 162.264C342.678 162.264 343.382 162.455 343.896 162.836C344.413 163.217 344.733 163.732 344.856 164.382ZM351.371 166.788V162.364H353.171V170H351.426V168.643H351.346C351.174 169.07 350.89 169.42 350.496 169.692C350.105 169.964 349.623 170.099 349.049 170.099C348.549 170.099 348.106 169.988 347.722 169.766C347.341 169.541 347.042 169.214 346.827 168.787C346.612 168.356 346.504 167.836 346.504 167.226V162.364H348.304V166.947C348.304 167.431 348.436 167.816 348.701 168.101C348.966 168.386 349.314 168.528 349.745 168.528C350.01 168.528 350.267 168.464 350.516 168.335C350.764 168.205 350.968 168.013 351.127 167.758C351.29 167.499 351.371 167.176 351.371 166.788ZM358.402 170.149C357.636 170.149 356.975 169.99 356.418 169.672C355.865 169.35 355.439 168.896 355.141 168.31C354.842 167.72 354.693 167.025 354.693 166.227C354.693 165.441 354.842 164.752 355.141 164.158C355.442 163.562 355.863 163.098 356.403 162.766C356.944 162.432 357.578 162.264 358.308 162.264C358.778 162.264 359.222 162.34 359.64 162.493C360.061 162.642 360.432 162.874 360.754 163.189C361.078 163.504 361.334 163.905 361.519 164.392C361.705 164.876 361.798 165.453 361.798 166.122V166.674H355.538V165.461H360.073C360.069 165.116 359.995 164.81 359.849 164.541C359.703 164.269 359.499 164.056 359.237 163.9C358.979 163.744 358.677 163.666 358.332 163.666C357.965 163.666 357.641 163.756 357.363 163.935C357.085 164.11 356.868 164.342 356.712 164.631C356.559 164.916 356.481 165.229 356.478 165.57V166.629C356.478 167.073 356.559 167.455 356.722 167.773C356.884 168.088 357.111 168.33 357.403 168.499C357.694 168.664 358.036 168.747 358.427 168.747C358.689 168.747 358.926 168.711 359.138 168.638C359.35 168.562 359.534 168.451 359.69 168.305C359.845 168.159 359.963 167.978 360.043 167.763L361.723 167.952C361.617 168.396 361.415 168.784 361.117 169.115C360.822 169.443 360.444 169.698 359.983 169.881C359.522 170.06 358.995 170.149 358.402 170.149ZM363.32 170V162.364H365.065V163.636H365.145C365.284 163.196 365.523 162.856 365.861 162.617C366.202 162.375 366.592 162.254 367.029 162.254C367.128 162.254 367.239 162.259 367.362 162.269C367.488 162.276 367.592 162.287 367.675 162.304V163.96C367.599 163.933 367.478 163.91 367.312 163.89C367.15 163.867 366.993 163.855 366.84 163.855C366.512 163.855 366.217 163.926 365.955 164.069C365.697 164.208 365.493 164.402 365.344 164.651C365.195 164.899 365.12 165.186 365.12 165.511V170H363.32ZM374.907 164.382L373.266 164.561C373.219 164.395 373.138 164.24 373.022 164.094C372.91 163.948 372.757 163.83 372.565 163.741C372.373 163.651 372.137 163.607 371.859 163.607C371.484 163.607 371.17 163.688 370.914 163.85C370.662 164.013 370.538 164.223 370.541 164.482C370.538 164.704 370.619 164.884 370.785 165.023C370.954 165.163 371.233 165.277 371.62 165.366L372.923 165.645C373.645 165.801 374.182 166.048 374.534 166.386C374.888 166.724 375.067 167.166 375.071 167.713C375.067 168.194 374.926 168.618 374.648 168.986C374.373 169.35 373.99 169.635 373.5 169.841C373.009 170.046 372.446 170.149 371.809 170.149C370.875 170.149 370.122 169.954 369.552 169.562C368.982 169.168 368.642 168.62 368.533 167.917L370.288 167.748C370.367 168.093 370.536 168.353 370.795 168.528C371.054 168.704 371.39 168.792 371.804 168.792C372.232 168.792 372.575 168.704 372.833 168.528C373.095 168.353 373.226 168.136 373.226 167.877C373.226 167.658 373.142 167.478 372.973 167.335C372.807 167.193 372.548 167.083 372.197 167.007L370.894 166.734C370.162 166.581 369.62 166.324 369.269 165.963C368.917 165.598 368.743 165.138 368.747 164.581C368.743 164.11 368.871 163.703 369.13 163.358C369.391 163.01 369.754 162.741 370.218 162.553C370.686 162.36 371.224 162.264 371.834 162.264C372.729 162.264 373.433 162.455 373.947 162.836C374.464 163.217 374.784 163.732 374.907 164.382Z" fill="black"/>
<rect x="299.5" y="129.5" width="89" height="56" fill="white"/>
<rect x="299.5" y="129.5" width="89" height="56" stroke="black"/>
<path d="M322.219 152.818V163H320.374V152.818H322.219ZM330.172 157.382L328.532 157.561C328.485 157.395 328.404 157.24 328.288 157.094C328.175 156.948 328.023 156.83 327.831 156.741C327.638 156.651 327.403 156.607 327.125 156.607C326.75 156.607 326.435 156.688 326.18 156.85C325.928 157.013 325.804 157.223 325.807 157.482C325.804 157.704 325.885 157.884 326.051 158.023C326.22 158.163 326.498 158.277 326.886 158.366L328.188 158.645C328.911 158.801 329.448 159.048 329.799 159.386C330.154 159.724 330.333 160.166 330.336 160.713C330.333 161.194 330.192 161.618 329.914 161.986C329.639 162.35 329.256 162.635 328.765 162.841C328.275 163.046 327.711 163.149 327.075 163.149C326.14 163.149 325.388 162.954 324.818 162.562C324.248 162.168 323.908 161.62 323.799 160.917L325.554 160.748C325.633 161.093 325.802 161.353 326.061 161.528C326.319 161.704 326.656 161.792 327.07 161.792C327.497 161.792 327.84 161.704 328.099 161.528C328.361 161.353 328.492 161.136 328.492 160.877C328.492 160.658 328.407 160.478 328.238 160.335C328.072 160.193 327.814 160.083 327.463 160.007L326.16 159.734C325.428 159.581 324.886 159.324 324.534 158.963C324.183 158.598 324.009 158.138 324.012 157.581C324.009 157.11 324.137 156.703 324.395 156.358C324.657 156.01 325.02 155.741 325.484 155.553C325.951 155.36 326.49 155.264 327.1 155.264C327.995 155.264 328.699 155.455 329.213 155.836C329.73 156.217 330.05 156.732 330.172 157.382ZM337.856 157.382L336.215 157.561C336.169 157.395 336.088 157.24 335.972 157.094C335.859 156.948 335.706 156.83 335.514 156.741C335.322 156.651 335.087 156.607 334.808 156.607C334.434 156.607 334.119 156.688 333.864 156.85C333.612 157.013 333.487 157.223 333.491 157.482C333.487 157.704 333.569 157.884 333.734 158.023C333.903 158.163 334.182 158.277 334.57 158.366L335.872 158.645C336.595 158.801 337.132 159.048 337.483 159.386C337.838 159.724 338.016 160.166 338.02 160.713C338.016 161.194 337.876 161.618 337.597 161.986C337.322 162.35 336.939 162.635 336.449 162.841C335.958 163.046 335.395 163.149 334.758 163.149C333.824 163.149 333.071 162.954 332.501 162.562C331.931 162.168 331.592 161.62 331.482 160.917L333.237 160.748C333.317 161.093 333.486 161.353 333.744 161.528C334.003 161.704 334.339 161.792 334.753 161.792C335.181 161.792 335.524 161.704 335.783 161.528C336.044 161.353 336.175 161.136 336.175 160.877C336.175 160.658 336.091 160.478 335.922 160.335C335.756 160.193 335.498 160.083 335.146 160.007L333.844 159.734C333.111 159.581 332.569 159.324 332.218 158.963C331.867 158.598 331.693 158.138 331.696 157.581C331.693 157.11 331.82 156.703 332.079 156.358C332.341 156.01 332.704 155.741 333.168 155.553C333.635 155.36 334.173 155.264 334.783 155.264C335.678 155.264 336.382 155.455 336.896 155.836C337.413 156.217 337.733 156.732 337.856 157.382ZM344.371 159.788V155.364H346.171V163H344.426V161.643H344.346C344.174 162.07 343.89 162.42 343.496 162.692C343.105 162.964 342.623 163.099 342.049 163.099C341.549 163.099 341.106 162.988 340.722 162.766C340.341 162.541 340.042 162.214 339.827 161.787C339.612 161.356 339.504 160.836 339.504 160.226V155.364H341.304V159.947C341.304 160.431 341.436 160.816 341.701 161.101C341.966 161.386 342.314 161.528 342.745 161.528C343.01 161.528 343.267 161.464 343.516 161.335C343.764 161.205 343.968 161.013 344.127 160.758C344.29 160.499 344.371 160.176 344.371 159.788ZM351.402 163.149C350.636 163.149 349.975 162.99 349.418 162.672C348.865 162.35 348.439 161.896 348.141 161.31C347.842 160.72 347.693 160.025 347.693 159.227C347.693 158.441 347.842 157.752 348.141 157.158C348.442 156.562 348.863 156.098 349.403 155.766C349.944 155.432 350.578 155.264 351.308 155.264C351.778 155.264 352.222 155.34 352.64 155.493C353.061 155.642 353.432 155.874 353.754 156.189C354.078 156.504 354.334 156.905 354.519 157.392C354.705 157.876 354.798 158.453 354.798 159.122V159.674H348.538V158.461H353.073C353.069 158.116 352.995 157.81 352.849 157.541C352.703 157.269 352.499 157.056 352.237 156.9C351.979 156.744 351.677 156.666 351.332 156.666C350.965 156.666 350.641 156.756 350.363 156.935C350.085 157.11 349.868 157.342 349.712 157.631C349.559 157.916 349.481 158.229 349.478 158.57V159.629C349.478 160.073 349.559 160.455 349.722 160.773C349.884 161.088 350.111 161.33 350.403 161.499C350.694 161.664 351.036 161.747 351.427 161.747C351.689 161.747 351.926 161.711 352.138 161.638C352.35 161.562 352.534 161.451 352.69 161.305C352.845 161.159 352.963 160.978 353.043 160.763L354.723 160.952C354.617 161.396 354.415 161.784 354.117 162.115C353.822 162.443 353.444 162.698 352.983 162.881C352.522 163.06 351.995 163.149 351.402 163.149ZM356.32 163V155.364H358.065V156.636H358.145C358.284 156.196 358.523 155.856 358.861 155.617C359.202 155.375 359.592 155.254 360.029 155.254C360.128 155.254 360.239 155.259 360.362 155.269C360.488 155.276 360.592 155.287 360.675 155.304V156.96C360.599 156.933 360.478 156.91 360.312 156.89C360.15 156.867 359.993 156.855 359.84 156.855C359.512 156.855 359.217 156.926 358.955 157.069C358.697 157.208 358.493 157.402 358.344 157.651C358.195 157.899 358.12 158.186 358.12 158.511V163H356.32ZM367.907 157.382L366.266 157.561C366.219 157.395 366.138 157.24 366.022 157.094C365.91 156.948 365.757 156.83 365.565 156.741C365.373 156.651 365.137 156.607 364.859 156.607C364.484 156.607 364.17 156.688 363.914 156.85C363.662 157.013 363.538 157.223 363.541 157.482C363.538 157.704 363.619 157.884 363.785 158.023C363.954 158.163 364.233 158.277 364.62 158.366L365.923 158.645C366.645 158.801 367.182 159.048 367.534 159.386C367.888 159.724 368.067 160.166 368.071 160.713C368.067 161.194 367.926 161.618 367.648 161.986C367.373 162.35 366.99 162.635 366.5 162.841C366.009 163.046 365.446 163.149 364.809 163.149C363.875 163.149 363.122 162.954 362.552 162.562C361.982 162.168 361.642 161.62 361.533 160.917L363.288 160.748C363.367 161.093 363.536 161.353 363.795 161.528C364.054 161.704 364.39 161.792 364.804 161.792C365.232 161.792 365.575 161.704 365.833 161.528C366.095 161.353 366.226 161.136 366.226 160.877C366.226 160.658 366.142 160.478 365.973 160.335C365.807 160.193 365.548 160.083 365.197 160.007L363.894 159.734C363.162 159.581 362.62 159.324 362.269 158.963C361.917 158.598 361.743 158.138 361.747 157.581C361.743 157.11 361.871 156.703 362.13 156.358C362.391 156.01 362.754 155.741 363.218 155.553C363.686 155.36 364.224 155.264 364.834 155.264C365.729 155.264 366.433 155.455 366.947 155.836C367.464 156.217 367.784 156.732 367.907 157.382Z" fill="black"/>
<path d="M61.3867 201.539C61.6745 201.241 61.6745 200.759 61.3867 200.461C61.0989 200.163 60.6322 200.163 60.3443 200.461L61.3867 201.539ZM57.5212 205.539L61.3867 201.539L60.3443 200.461L56.4788 204.461L57.5212 205.539Z" fill="black"/>
<path d="M60.4228 201.539C60.135 201.241 60.135 200.759 60.4228 200.461C60.7107 200.163 61.1773 200.163 61.4652 200.461L60.4228 201.539ZM64.2883 205.539L60.4228 201.539L61.4652 200.461L65.3307 204.461L64.2883 205.539Z" fill="black"/>
<path d="M60.9048 217L60.9048 202" stroke="black" stroke-width="1.5"/>
<path d="M352.423 117.461C352.135 117.759 352.135 118.241 352.423 118.539C352.711 118.837 353.177 118.837 353.465 118.539L352.423 117.461ZM356.288 113.461L352.423 117.461L353.465 118.539L357.331 114.539L356.288 113.461Z" fill="black"/>
<path d="M353.387 117.461C353.675 117.759 353.675 118.241 353.387 118.539C353.099 118.837 352.632 118.837 352.344 118.539L353.387 117.461ZM349.521 113.461L353.387 117.461L352.344 118.539L348.479 114.539L349.521 113.461Z" fill="black"/>
<path d="M352.905 102L352.905 117" stroke="black" stroke-width="1.5"/>
</svg>
